<?xml version="1.0" standalone="no"?>
<!DOCTYPE svg PUBLIC "-//W3C//DTD SVG 20010904//EN"
 "http://www.w3.org/TR/2001/REC-SVG-20010904/DTD/svg10.dtd">
<svg version="1.0" xmlns="http://www.w3.org/2000/svg"
 width="864.000000pt" height="864.000000pt" viewBox="0 0 864.000000 864.000000"
 preserveAspectRatio="xMidYMid meet">
<metadata>
Created by potrace 1.11, written by Peter Selinger 2001-2013
</metadata>
<g transform="translate(0.000000,864.000000) scale(0.100000,-0.100000)"
fill="#000000" stroke="none">
<path d="M6293 8630 c-69 -5 -75 -7 -185 -81 -62 -42 -243 -163 -403 -268
-288 -191 -290 -192 -335 -187 -25 3 -63 10 -85 15 -22 5 -74 16 -115 26 -41
9 -84 18 -95 20 -11 1 -63 12 -115 24 -52 11 -107 22 -123 25 -22 4 -57 -17
-205 -122 -97 -70 -181 -130 -187 -135 -5 -4 -58 -43 -116 -85 -59 -42 -117
-85 -130 -95 -46 -34 -194 -139 -229 -163 -37 -24 -238 -168 -255 -181 -5 -5
-54 -40 -107 -78 -58 -42 -103 -82 -112 -100 -8 -16 -82 -201 -165 -410 -84
-209 -156 -389 -161 -400 -22 -49 -63 -154 -77 -200 -8 -27 -19 -54 -23 -60
-4 -5 -11 -21 -15 -35 -4 -14 -13 -40 -21 -57 -38 -89 -47 -110 -60 -137 -8
-16 -14 -32 -14 -36 0 -4 -8 -25 -17 -46 -9 -22 -18 -43 -19 -49 -3 -9 -89
-224 -109 -270 -4 -11 -9 -22 -9 -25 -1 -3 -4 -9 -7 -15 -23 -38 -36 -115 -54
-325 -12 -137 -16 -187 -22 -235 -3 -27 -7 -68 -8 -90 -13 -154 -17 -193 -20
-215 -2 -14 -6 -61 -10 -105 -3 -44 -7 -98 -10 -120 -4 -35 -10 -104 -20 -210
-1 -16 -6 -70 -10 -120 -4 -49 -9 -99 -11 -109 -2 -10 -6 -56 -9 -101 -7 -95
-10 -113 -16 -119 -4 -4 -274 -23 -362 -25 -33 -1 -21 23 -242 -476 -98 -221
-111 -265 -130 -430 -11 -97 -20 -167 -30 -235 -2 -14 -7 -50 -10 -80 -3 -30
-8 -66 -10 -80 -2 -14 -7 -49 -10 -79 -4 -30 -9 -63 -11 -75 -2 -12 -6 -46 -9
-77 -3 -31 -7 -65 -9 -76 -3 -11 -7 -44 -11 -74 -3 -30 -8 -65 -10 -79 -2 -14
-9 -63 -15 -110 -6 -47 -12 -98 -15 -115 -2 -16 -7 -55 -10 -85 -3 -30 -8 -66
-10 -80 -2 -14 -7 -51 -10 -83 -4 -32 -8 -66 -10 -76 -3 -18 11 -45 100 -186
24 -38 53 -87 65 -108 l20 -38 -55 -277 c-30 -152 -58 -288 -61 -302 -10 -50
-34 -174 -40 -204 -2 -17 -9 -47 -14 -66 -15 -54 -12 -87 8 -93 9 -3 49 -17
87 -31 45 -17 99 -28 150 -31 131 -8 237 -15 295 -20 152 -12 301 -20 550 -30
138 -5 255 -12 370 -21 36 -3 342 -7 680 -9 444 -2 619 1 629 9 12 9 13 8 6
-3 -7 -12 20 -13 171 -8 98 4 193 9 209 11 17 3 64 7 105 11 41 3 82 8 90 10
8 2 53 7 100 10 47 4 99 8 115 10 78 7 173 17 205 21 19 2 64 6 100 10 36 3
68 9 72 12 15 15 68 125 68 143 0 26 -66 303 -76 322 -5 8 -45 44 -89 79 -43
34 -90 73 -103 85 -25 23 -22 9 -103 463 -51 287 -48 270 -54 300 -3 14 -7 43
-11 65 -3 22 -7 48 -10 58 -3 10 -7 30 -9 45 -2 15 -10 57 -18 94 l-14 66 73
94 c40 51 81 102 91 113 10 11 34 40 53 65 56 73 224 285 230 290 3 3 18 23
35 45 16 22 32 42 35 45 4 4 43 52 167 210 6 8 50 62 96 120 46 58 236 296
421 530 186 234 346 435 356 447 10 12 26 35 34 52 15 28 18 51 31 211 2 36 7
81 10 100 3 19 7 64 10 100 3 36 7 83 9 105 4 42 14 156 21 240 3 28 7 80 11
117 l6 67 -48 68 c-27 37 -51 70 -54 73 -3 3 -17 21 -30 40 -13 19 -29 40 -35
47 -5 6 -31 40 -56 75 -26 35 -81 110 -123 167 -81 110 -88 131 -67 211 5 19
12 55 15 80 6 47 7 53 26 160 7 36 14 81 16 100 2 19 6 46 9 60 3 14 7 41 10
60 3 19 7 46 10 60 3 14 7 48 11 75 3 28 8 59 10 70 2 11 6 31 8 45 3 14 8 47
11 74 3 27 8 53 11 57 2 4 6 29 9 56 4 52 14 113 22 147 8 36 4 68 -22 151
-13 44 -38 127 -55 185 -17 58 -35 114 -40 125 -11 25 -40 138 -40 157 0 8 97
175 215 371 118 197 215 363 215 370 0 11 -39 83 -134 252 -16 28 -46 82 -67
120 -21 39 -81 147 -133 240 l-94 170 -79 0 c-43 0 -110 -2 -150 -5z m-160
-2082 c12 -6 29 -15 37 -19 8 -5 33 -17 55 -28 70 -34 69 -28 22 -132 -75
-166 -79 -168 -97 -76 -17 89 -46 214 -56 250 -6 20 7 22 39 5z m-1128 -925
c44 -60 171 -231 283 -381 112 -151 201 -276 198 -279 -8 -8 -84 -11 -681 -28
-66 -2 -200 -6 -297 -10 -112 -4 -178 -3 -178 3 0 5 21 38 47 73 48 66 200
273 288 391 28 37 95 128 150 203 54 74 102 135 105 135 3 0 41 -48 85 -107z"/>
</g>
</svg>
