<?xml version="1.0" standalone="no"?>
<!DOCTYPE svg PUBLIC "-//W3C//DTD SVG 20010904//EN"
 "http://www.w3.org/TR/2001/REC-SVG-20010904/DTD/svg10.dtd">
<svg version="1.0" xmlns="http://www.w3.org/2000/svg"
 width="2000.000000pt" height="2000.000000pt" viewBox="0 0 2000.000000 2000.000000"
 preserveAspectRatio="xMidYMid meet">
<metadata>
Created by potrace 1.11, written by Peter Selinger 2001-2013
</metadata>
<g transform="translate(0.000000,2000.000000) scale(0.100000,-0.100000)"
fill="#000000" stroke="none">
<path d="M11575 19563 c-180 -42 -535 -198 -790 -346 -124 -72 -413 -271 -445
-306 -3 -3 -39 -35 -80 -71 -433 -373 -696 -822 -764 -1305 -18 -124 -14 -387
8 -540 13 -94 86 -630 101 -750 3 -22 7 -56 10 -75 3 -19 7 -55 10 -80 4 -25
8 -56 10 -70 2 -14 11 -81 20 -150 9 -69 18 -138 21 -155 2 -16 15 -115 29
-220 40 -303 143 -1037 160 -1145 2 -14 9 -61 15 -105 7 -44 13 -87 15 -95 2
-8 6 -37 9 -65 6 -43 58 -380 71 -454 2 -14 25 -152 50 -306 36 -223 128 -741
139 -790 2 -5 6 -28 10 -50 47 -241 136 -605 190 -770 112 -344 202 -475 282
-413 87 69 238 589 388 1338 60 298 170 923 220 1250 3 19 14 93 26 163 11 71
24 156 29 190 30 199 120 818 125 852 2 22 7 58 10 80 15 105 47 344 51 375 2
19 9 71 14 115 6 44 12 100 15 125 9 74 36 302 41 340 6 53 25 220 29 265 6
57 26 244 31 285 2 19 7 64 10 100 5 57 14 146 30 310 2 25 7 74 10 110 3 36
8 85 10 110 3 25 7 81 10 125 3 44 8 105 10 135 15 162 25 301 40 550 15 243
20 741 9 930 -3 52 -14 158 -25 235 -22 157 -61 259 -107 276 -13 5 -24 8 -25
8 -1 -1 -11 -3 -22 -6z"/>
<path d="M7320 17109 c-297 -107 -602 -291 -804 -487 -287 -278 -424 -558
-432 -887 -3 -151 6 -233 43 -365 23 -84 94 -268 113 -295 4 -5 24 -41 44 -80
21 -38 45 -83 55 -100 29 -48 432 -746 456 -790 13 -22 96 -166 185 -320 90
-154 174 -300 188 -325 54 -96 340 -584 445 -760 61 -102 117 -196 124 -210
28 -53 374 -620 556 -910 374 -600 632 -975 816 -1185 177 -204 249 -265 310
-265 28 0 34 5 48 38 13 30 14 63 10 182 -5 121 -31 368 -52 494 -52 310 -112
621 -175 896 -311 1374 -673 2681 -1068 3850 -208 618 -386 1045 -544 1311
-68 114 -92 146 -151 197 -45 38 -83 41 -167 11z"/>
<path d="M4214 14498 c-55 -37 -200 -177 -261 -253 -284 -355 -369 -782 -237
-1182 70 -211 202 -422 389 -622 27 -30 210 -202 405 -384 195 -182 416 -387
490 -456 74 -69 162 -151 194 -181 33 -30 94 -86 135 -125 87 -82 73 -69 231
-215 69 -63 152 -139 185 -170 69 -64 164 -151 254 -235 36 -33 79 -73 97 -90
18 -16 49 -45 70 -64 22 -19 88 -80 149 -135 60 -56 132 -121 159 -146 27 -25
57 -52 66 -60 9 -8 54 -49 101 -90 46 -41 86 -77 89 -81 3 -3 52 -48 110 -99
58 -51 107 -96 110 -99 3 -3 36 -33 75 -66 38 -33 77 -67 85 -75 37 -34 175
-156 325 -286 750 -651 1233 -988 1272 -887 11 29 -16 103 -101 272 -197 391
-625 1064 -1251 1966 -23 33 -67 97 -98 142 -64 93 -346 492 -488 689 -469
656 -1130 1526 -1513 1994 -61 74 -113 137 -116 140 -3 3 -27 32 -55 65 -178
214 -457 508 -610 644 -61 54 -170 121 -197 121 -8 0 -37 -15 -64 -32z"/>
<path d="M16835 11528 c-83 -44 -255 -199 -546 -494 -103 -104 -197 -200 -210
-214 -13 -14 -40 -33 -59 -41 -24 -11 -79 -71 -175 -187 -104 -128 -148 -174
-173 -182 -23 -9 -64 -49 -139 -138 -71 -86 -115 -129 -133 -135 -36 -9 -68
-40 -168 -164 -62 -76 -91 -103 -113 -108 -22 -5 -52 -33 -112 -106 -60 -71
-88 -99 -105 -99 -59 0 -102 -38 -257 -225 -114 -136 -148 -175 -155 -175 -40
0 -175 392 -220 635 -32 180 -34 531 -3 685 l6 33 -74 -59 c-223 -177 -432
-377 -552 -526 -115 -143 -186 -284 -190 -380 -1 -26 -4 -47 -7 -45 -3 1 -43
21 -90 44 -131 66 -266 100 -635 163 -396 68 -610 117 -843 196 -314 105 -609
258 -871 452 -86 64 -81 66 -131 -55 -44 -105 -60 -198 -55 -323 4 -126 28
-219 90 -346 99 -204 306 -422 479 -505 58 -28 59 -28 30 -36 -61 -17 -274 -8
-369 15 -200 50 -440 157 -697 314 -188 114 -198 119 -222 116 -20 -3 -21 -9
-23 -128 -2 -204 28 -359 103 -515 88 -186 238 -328 411 -390 48 -17 50 -19
30 -30 -12 -6 -48 -19 -79 -29 -253 -79 -538 -46 -818 94 -161 80 -311 195
-362 278 l-22 36 -13 -50 c-20 -73 -29 -218 -20 -309 19 -205 125 -422 282
-579 103 -104 196 -162 325 -203 27 -8 -101 -65 -175 -77 -249 -42 -577 65
-872 286 -108 80 -190 167 -224 237 -13 28 -27 50 -31 51 -4 0 -14 -26 -23
-57 -97 -334 21 -686 339 -1009 161 -162 300 -263 453 -328 l55 -23 -54 -21
c-60 -25 -225 -71 -343 -97 -385 -84 -528 -135 -597 -214 -59 -67 -117 -216
-133 -341 -11 -81 -6 -255 9 -360 16 -102 68 -327 85 -365 5 -11 17 -45 26
-75 61 -197 239 -593 394 -879 38 -69 84 -153 102 -186 18 -33 94 -166 169
-295 75 -129 148 -255 162 -280 297 -528 699 -994 1098 -1272 322 -224 703
-368 1125 -423 100 -14 469 -14 565 -1 458 63 672 271 685 669 4 134 -14 282
-69 557 -49 249 -51 256 -73 420 -17 132 -25 491 -13 595 46 388 177 692 398
923 27 28 52 52 54 52 3 0 34 -40 70 -88 120 -160 271 -302 438 -412 149 -97
278 -156 485 -220 33 -10 191 -39 355 -65 201 -33 312 -73 445 -162 86 -57 98
-67 310 -268 77 -74 160 -150 185 -171 131 -109 279 -181 440 -214 106 -22
303 -20 405 5 385 92 661 394 751 819 24 116 29 173 28 331 -3 261 -67 501
-214 800 -121 247 -240 429 -560 859 -429 577 -541 776 -717 1271 -178 503
-259 687 -374 859 -53 78 -58 90 -46 105 114 131 313 383 325 410 8 20 14 54
14 76 -1 32 5 47 31 75 89 97 137 169 137 207 0 8 41 65 91 126 100 120 119
150 119 186 0 15 32 62 88 130 106 128 119 147 126 185 3 15 33 63 68 105 34
42 98 120 142 173 43 53 84 112 91 130 6 18 65 110 131 203 353 500 503 760
456 789 -5 3 -26 -4 -47 -16z m-1708 -3854 c59 -28 107 -78 137 -143 16 -36
21 -65 20 -131 -1 -102 -22 -157 -84 -217 -55 -55 -102 -76 -178 -81 -55 -4
-71 -1 -127 27 -114 57 -172 160 -163 295 14 212 212 338 395 250z"/>
<path d="M3153 10708 c-74 -81 -152 -292 -189 -518 -44 -267 -39 -624 13 -865
8 -38 16 -80 19 -92 8 -41 76 -227 101 -277 65 -131 169 -261 278 -348 71 -57
162 -102 316 -157 90 -32 304 -114 474 -181 1879 -741 3200 -1204 3501 -1227
103 -7 112 5 60 81 -37 54 -352 370 -541 542 -202 184 -287 261 -410 369 -44
38 -82 72 -85 76 -5 6 -337 290 -429 368 -30 25 -71 60 -90 77 -29 25 -389
325 -576 479 -235 194 -649 526 -875 701 -799 620 -1334 972 -1505 991 -33 4
-44 1 -62 -19z"/>
<path d="M2924 6970 c-50 -20 -90 -106 -80 -170 40 -251 309 -650 589 -874
117 -93 219 -129 402 -141 55 -3 107 -8 115 -10 8 -2 60 -7 115 -10 55 -4 106
-8 115 -10 8 -1 60 -6 115 -10 55 -3 114 -8 130 -10 17 -2 75 -7 130 -10 55
-3 107 -8 115 -10 8 -2 62 -6 120 -10 58 -3 123 -8 145 -10 22 -2 81 -7 130
-10 50 -4 104 -8 120 -10 17 -2 77 -7 135 -10 58 -3 128 -7 155 -10 49 -5 121
-9 335 -20 58 -3 141 -7 185 -10 44 -3 139 -7 210 -10 72 -4 164 -8 205 -10
308 -15 507 -20 785 -20 286 0 325 2 368 19 47 18 48 18 30 38 -27 30 -49 40
-376 162 -381 143 -654 235 -1197 405 -415 129 -596 182 -1120 330 -157 44
-301 85 -320 91 -79 23 -388 105 -590 155 -602 150 -987 217 -1066 185z"/>
<path d="M6577 4524 c-1 -1 -168 -5 -372 -8 -203 -4 -386 -9 -405 -11 -19 -1
-118 -6 -220 -10 -102 -4 -210 -8 -240 -10 -30 -1 -125 -6 -210 -9 -85 -4
-175 -9 -200 -11 -25 -2 -99 -6 -165 -10 -66 -3 -131 -8 -145 -10 -14 -2 -65
-7 -115 -10 -49 -3 -110 -7 -135 -10 -100 -10 -150 -15 -248 -25 -132 -13
-296 -46 -348 -71 -142 -67 -75 -334 135 -532 228 -214 501 -303 806 -261 237
33 916 188 1555 354 85 23 162 43 170 45 19 4 123 32 360 96 663 179 1134 336
1228 407 l35 26 -31 13 c-17 7 -62 15 -99 19 -37 3 -79 7 -91 9 -62 10 -370
17 -795 19 -257 1 -468 1 -470 0z"/>
<path d="M8445 3314 c-292 -40 -1035 -195 -1600 -335 -638 -159 -1053 -279
-1300 -376 -329 -130 -383 -193 -233 -269 72 -36 174 -62 358 -89 176 -25 928
-26 1090 -1 14 3 52 7 85 11 153 16 340 66 465 123 234 106 1030 641 1223 822
56 52 97 104 97 122 0 8 -96 4 -185 -8z"/>
<path d="M9615 2283 c-11 -2 -55 -10 -97 -19 -223 -42 -858 -225 -1223 -352
-441 -153 -635 -231 -876 -353 -239 -120 -289 -176 -221 -244 57 -58 194 -99
424 -125 146 -17 537 -14 648 5 14 2 45 7 70 11 25 3 50 7 55 8 6 2 28 6 49
11 73 15 198 64 267 105 52 31 238 176 269 210 3 3 32 27 65 55 151 126 384
346 486 460 122 137 141 160 160 197 l19 38 -37 -1 c-21 -1 -47 -3 -58 -6z"/>
<path d="M10550 1706 c-342 -118 -1119 -484 -1448 -681 -310 -185 -402 -256
-402 -312 0 -89 234 -121 570 -78 293 37 551 105 668 176 169 103 762 817 762
919 0 18 -53 10 -150 -24z"/>
<path d="M11725 1526 c-126 -57 -407 -444 -565 -778 -102 -217 -123 -328 -63
-328 55 0 287 101 449 196 156 91 347 226 380 269 45 60 61 275 30 408 -27
113 -92 214 -153 238 -31 12 -42 11 -78 -5z"/>
</g>
</svg>
