<svg xmlns="http://www.w3.org/2000/svg" viewBox="0 0 243.83 100.65"><title>eip0-typelogo</title><g id="Layer_2" data-name="Layer 2"><g id="Layer_1-2" data-name="Layer 1"><path d="M26.26,79.59a24.05,24.05,0,0,1-10.71-2.36,25.75,25.75,0,0,1-8.24-6.36A29.55,29.55,0,0,1,2,61.73,31.53,31.53,0,0,1,0,51V48.65A33.67,33.67,0,0,1,1.81,38.12a29.89,29.89,0,0,1,5-9.2,25.28,25.28,0,0,1,7.86-6.51,21.89,21.89,0,0,1,10.48-2.47,21.81,21.81,0,0,1,9.41,2,21.47,21.47,0,0,1,7.15,5.34,24.13,24.13,0,0,1,4.55,7.84A28.68,28.68,0,0,1,47.9,44.5v3.35h-45V51a28.6,28.6,0,0,0,1.76,9.59,26.84,26.84,0,0,0,4.75,8.25,23.44,23.44,0,0,0,7.34,5.74,21.43,21.43,0,0,0,9.54,2.2,24.19,24.19,0,0,0,9.87-1.86,21,21,0,0,0,7.95-6.06l2.07,1.44a22.34,22.34,0,0,1-8.8,7A27.16,27.16,0,0,1,26.26,79.59ZM25.15,22.81a19.7,19.7,0,0,0-8.61,1.83,21.28,21.28,0,0,0-6.62,4.92,25.28,25.28,0,0,0-4.52,7.1A30,30,0,0,0,3.14,45H45v-.69a22.79,22.79,0,0,0-1.46-8.14A22,22,0,0,0,39.5,29.3a19.13,19.13,0,0,0-6.27-4.74A18.49,18.49,0,0,0,25.15,22.81Z"/><path d="M69.33,21h24V75.66h20.42v2.87H69.33V75.66H90.44V23.87H69.33ZM88,4.63a7.19,7.19,0,0,1,.16-1.47,3.16,3.16,0,0,1,.59-1.27A2.82,2.82,0,0,1,89.88,1,4.58,4.58,0,0,1,91.71.69,4.48,4.48,0,0,1,93.5,1a3.23,3.23,0,0,1,1.17.88,3.23,3.23,0,0,1,.63,1.27,5.59,5.59,0,0,1,.19,1.47,4.48,4.48,0,0,1-.82,2.6,3.38,3.38,0,0,1-3,1.17,3.29,3.29,0,0,1-2.95-1.17A4.66,4.66,0,0,1,88,4.63Z"/><path d="M177.74,50.3a43.37,43.37,0,0,1-.56,6.83,40.26,40.26,0,0,1-1.67,6.72,30.13,30.13,0,0,1-2.9,6.12,21.26,21.26,0,0,1-4.28,5,19.46,19.46,0,0,1-5.8,3.37,20.66,20.66,0,0,1-7.44,1.25,22.19,22.19,0,0,1-5.26-.64,24.13,24.13,0,0,1-5.11-1.83,23.3,23.3,0,0,1-4.57-3,17.77,17.77,0,0,1-3.61-4v30.52h-2.88V21h2.88v9.57A20,20,0,0,1,140,26.16a22.7,22.7,0,0,1,4.44-3.35,21.78,21.78,0,0,1,5.07-2.13,20.58,20.58,0,0,1,5.45-.74,21.86,21.86,0,0,1,7.53,1.22,19.54,19.54,0,0,1,5.82,3.32,20.58,20.58,0,0,1,4.28,5,30.93,30.93,0,0,1,2.92,6.11,34.3,34.3,0,0,1,1.65,6.73,53.9,53.9,0,0,1,.56,6.88Zm-2.92-1.12a41.27,41.27,0,0,0-.46-6.09,37.72,37.72,0,0,0-1.38-6,26.68,26.68,0,0,0-2.44-5.5,18.67,18.67,0,0,0-3.7-4.52,16.57,16.57,0,0,0-5.1-3.09,18.38,18.38,0,0,0-6.7-1.14,18.83,18.83,0,0,0-6,1,19.57,19.57,0,0,0-9.62,7.13,20,20,0,0,0-2.84,5.61V64.92A15.51,15.51,0,0,0,139.59,70a19.35,19.35,0,0,0,4.5,3.69A20.93,20.93,0,0,0,149.46,76a22,22,0,0,0,5.68.77,18.18,18.18,0,0,0,6.65-1.14,16.43,16.43,0,0,0,5.1-3.11,18.31,18.31,0,0,0,3.67-4.57A28.18,28.18,0,0,0,173,62.37a36.86,36.86,0,0,0,1.36-6,52.92,52.92,0,0,0,.48-6.06Z"/><path d="M243.83,47a66.74,66.74,0,0,1-.56,7.65,43.87,43.87,0,0,1-1.65,7.5,35.74,35.74,0,0,1-3,6.81,22.45,22.45,0,0,1-4.41,5.55,19.84,19.84,0,0,1-6.09,3.75,23.42,23.42,0,0,1-15.84,0,20.11,20.11,0,0,1-6.12-3.75,23.21,23.21,0,0,1-4.49-5.55,33.53,33.53,0,0,1-3-6.81A47,47,0,0,1,197,54.6a54,54,0,0,1-.56-7.65V32.7a55,55,0,0,1,.54-7.6,45.67,45.67,0,0,1,1.67-7.53,34.28,34.28,0,0,1,3-6.83,23,23,0,0,1,4.44-5.58,19.32,19.32,0,0,1,6.09-3.78,23.56,23.56,0,0,1,15.89,0,19.61,19.61,0,0,1,6.09,3.75,22.65,22.65,0,0,1,4.44,5.56,34.08,34.08,0,0,1,3,6.83A42.71,42.71,0,0,1,243.27,25a66.91,66.91,0,0,1,.56,7.66Zm-44.5-.11a53.53,53.53,0,0,0,.29,5.61,40.87,40.87,0,0,0,1,5.66l38.55-38.86a32.23,32.23,0,0,0-2.55-6.33,21.23,21.23,0,0,0-3.91-5.21,17.42,17.42,0,0,0-5.42-3.54,20.4,20.4,0,0,0-14.28,0,17.35,17.35,0,0,0-5.39,3.48,20,20,0,0,0-3.89,5.16,32.22,32.22,0,0,0-2.52,6.27,45.45,45.45,0,0,0-1.41,6.83,53.56,53.56,0,0,0-.45,6.81ZM241,32.7c0-1.7-.13-3.43-.29-5.19a46.46,46.46,0,0,0-.78-5.23L201.4,61.09a31.8,31.8,0,0,0,2.6,6,20.35,20.35,0,0,0,3.89,5,17.45,17.45,0,0,0,5.34,3.37,20.1,20.1,0,0,0,14.09,0,17.49,17.49,0,0,0,5.4-3.51,20.57,20.57,0,0,0,3.85-5.16,32.25,32.25,0,0,0,2.53-6.27,45.4,45.4,0,0,0,1.38-6.83,67.7,67.7,0,0,0,.48-6.81Z"/></g></g></svg>