<svg xmlns="http://www.w3.org/2000/svg" viewBox="0 0 395.17 287.9"><title>eip0-logo</title><g id="Layer_2" data-name="Layer 2"><g id="Layer_1-2" data-name="Layer 1"><path d="M177.61,265.9a23.92,23.92,0,0,1-10.71-2.37,25.61,25.61,0,0,1-8.24-6.35,29.82,29.82,0,0,1-5.35-9.15,31.52,31.52,0,0,1-2-10.74V235a33.55,33.55,0,0,1,1.8-10.52,30,30,0,0,1,5-9.2,25.21,25.21,0,0,1,7.87-6.52,23.46,23.46,0,0,1,19.89-.5,21.47,21.47,0,0,1,7.15,5.34,24.22,24.22,0,0,1,4.54,7.84,28.44,28.44,0,0,1,1.65,9.42v3.35h-45v3.13a28.6,28.6,0,0,0,1.75,9.6,26.82,26.82,0,0,0,4.76,8.24,23.18,23.18,0,0,0,7.34,5.74,21.4,21.4,0,0,0,9.54,2.21,24.44,24.44,0,0,0,9.86-1.86,21.09,21.09,0,0,0,7.95-6.06l2.08,1.43a22.45,22.45,0,0,1-8.8,7.05A27.32,27.32,0,0,1,177.61,265.9Zm-1.11-56.79a19.61,19.61,0,0,0-8.62,1.84,21.09,21.09,0,0,0-6.62,4.92,25.69,25.69,0,0,0-4.52,7.09,30.66,30.66,0,0,0-2.26,8.32h41.9v-.69a23,23,0,0,0-1.46-8.13,22.16,22.16,0,0,0-4.07-6.86,19.45,19.45,0,0,0-6.27-4.73A18.5,18.5,0,0,0,176.5,209.11Z"/><path d="M220.68,207.31h24V262h20.41v2.87H220.68V262h21.11V210.18H220.68Zm18.66-16.38a6.47,6.47,0,0,1,.16-1.46,3.32,3.32,0,0,1,.58-1.28,3,3,0,0,1,1.15-.88,4.6,4.6,0,0,1,1.83-.31,4.44,4.44,0,0,1,1.78.31,3.17,3.17,0,0,1,1.17.88,3.29,3.29,0,0,1,.64,1.28,6,6,0,0,1,.19,1.46,4.38,4.38,0,0,1-.83,2.6,3.34,3.34,0,0,1-2.95,1.17c-1.45,0-2.44-.38-2.95-1.17A4.62,4.62,0,0,1,239.34,190.93Z"/><path d="M329.09,236.6a43.37,43.37,0,0,1-.56,6.83,39.21,39.21,0,0,1-1.68,6.73,30.27,30.27,0,0,1-2.89,6.11,21.29,21.29,0,0,1-4.28,5,19.7,19.7,0,0,1-5.8,3.38,21,21,0,0,1-7.44,1.25,22.87,22.87,0,0,1-5.27-.64,24.85,24.85,0,0,1-5.1-1.84,22.85,22.85,0,0,1-4.57-2.95,17.61,17.61,0,0,1-3.62-4V287H285V207.31h2.87v9.57a20.43,20.43,0,0,1,3.49-4.42,22.94,22.94,0,0,1,4.43-3.35,21.58,21.58,0,0,1,5.08-2.12,20.18,20.18,0,0,1,5.45-.75,21.86,21.86,0,0,1,7.53,1.22,19.56,19.56,0,0,1,5.82,3.33,20.94,20.94,0,0,1,4.28,5,31.5,31.5,0,0,1,2.92,6.11,36.16,36.16,0,0,1,1.65,6.73,54,54,0,0,1,.56,6.88Zm-2.93-1.12a42.4,42.4,0,0,0-.45-6.08,37.59,37.59,0,0,0-1.38-6,27,27,0,0,0-2.45-5.5,18.63,18.63,0,0,0-3.69-4.52,16.91,16.91,0,0,0-5.11-3.08,18.11,18.11,0,0,0-6.69-1.15,18.52,18.52,0,0,0-6,1,19.17,19.17,0,0,0-5.34,2.79,19.76,19.76,0,0,0-4.28,4.33,20.18,20.18,0,0,0-2.85,5.61v28.39a15.5,15.5,0,0,0,3.06,5.08,19.51,19.51,0,0,0,4.49,3.69,20.87,20.87,0,0,0,5.37,2.26,21.66,21.66,0,0,0,5.69.78,18.21,18.21,0,0,0,6.65-1.15,16.43,16.43,0,0,0,5.1-3.11,18.35,18.35,0,0,0,3.67-4.57,28.78,28.78,0,0,0,2.42-5.53,36.63,36.63,0,0,0,1.36-6,50.39,50.39,0,0,0,.47-6.06Z"/><path d="M395.17,233.25a66.87,66.87,0,0,1-.55,7.66A43.76,43.76,0,0,1,393,248.4a35.74,35.74,0,0,1-3,6.81,22.35,22.35,0,0,1-4.42,5.56,19.84,19.84,0,0,1-6.08,3.74,23.29,23.29,0,0,1-15.85,0,20.23,20.23,0,0,1-6.11-3.74,23.07,23.07,0,0,1-4.49-5.56,33,33,0,0,1-3-6.81,46.87,46.87,0,0,1-1.7-7.49,54.1,54.1,0,0,1-.56-7.66V219a56.71,56.71,0,0,1,.53-7.6,46.38,46.38,0,0,1,1.68-7.52,33.79,33.79,0,0,1,3-6.84,23.33,23.33,0,0,1,4.44-5.58,19.54,19.54,0,0,1,6.08-3.77,23.43,23.43,0,0,1,15.9,0,20,20,0,0,1,6.09,3.74,22.89,22.89,0,0,1,4.44,5.56,35.8,35.8,0,0,1,3,6.83,42.82,42.82,0,0,1,1.68,7.53,66.7,66.7,0,0,1,.55,7.65Zm-44.5-.1a53.24,53.24,0,0,0,.3,5.6,41,41,0,0,0,1,5.67l38.55-38.87a31.9,31.9,0,0,0-2.56-6.33A21,21,0,0,0,384,194a17.32,17.32,0,0,0-5.43-3.53,20.45,20.45,0,0,0-14.27,0,17.28,17.28,0,0,0-5.4,3.48,20.38,20.38,0,0,0-3.88,5.16,32.51,32.51,0,0,0-2.53,6.27,46.84,46.84,0,0,0-1.4,6.84,51.79,51.79,0,0,0-.46,6.8ZM392.3,219c0-1.7-.13-3.43-.29-5.18a49,49,0,0,0-.77-5.24l-38.49,38.81a32.17,32.17,0,0,0,2.6,6,20.5,20.5,0,0,0,3.88,5,17.64,17.64,0,0,0,5.35,3.38,20,20,0,0,0,14.09-.06,17.15,17.15,0,0,0,5.39-3.51,20.49,20.49,0,0,0,3.86-5.15,33,33,0,0,0,2.52-6.28,44,44,0,0,0,1.39-6.83,64.81,64.81,0,0,0,.47-6.8Z"/></g><g id="Layer_2-2" data-name="Layer 2"><path d="M.16,241.49c-.27-.34-.13-.72-.08-1.09.51-4,1-8,1.53-12q.9-7,1.82-14,.88-6.83,1.76-13.65.73-5.7,1.48-11.39c.1-.7.24-1.38.35-2.07h.29a14.66,14.66,0,0,0,.85,1.56q1.89,2.63,3.84,5.22l15.25,20.36c1.62,2.17,3.21,4.35,4.82,6.51l8,10.8a16.06,16.06,0,0,1-2,.72q-8.52,2-17,4c-6.47,1.49-12.95,3-19.42,4.48A10.08,10.08,0,0,0,.16,241.49Z" style="fill:#5d5d5d"/><path d="M.16,241.49a10.08,10.08,0,0,1,1.49-.6c6.47-1.51,13-3,19.42-4.48q8.54-2,17-4a16.06,16.06,0,0,0,2-.72h.33v.32c-.36,1-.74,2-1.07,3.06-1,3.08-1.91,6.18-2.89,9.26q-1.59,5-3.22,10-2.31,7.08-4.61,14.15c-.51,1.59-1,3.19-1.49,4.79a1.48,1.48,0,0,0,0,1.25v.31h-.68a5,5,0,0,0-.38-.52c-1-1.17-2.1-2.33-3.13-3.51a9.85,9.85,0,0,1-.68-1.08,2.62,2.62,0,0,0-1.31-1.7v0a6.64,6.64,0,0,0-.52-1c-1.33-1.69-2.69-3.36-4-5.05Q11.58,256,6.77,249.91c-1.34-1.69-2.67-3.38-4-5-.25-.31-.45-.77-1-.75A7.84,7.84,0,0,1,.16,241.49Z" style="fill:#555"/><path d="M101.73,287.83h-1a4.74,4.74,0,0,0-2.38-.3h-33l-8.08,0,0-1.56v-9.09a6.25,6.25,0,0,1,2.71-.32H96.13c.54,0,1.08,0,1.62,0a2.89,2.89,0,0,0,.66-.18A3.1,3.1,0,0,0,97,275.13c-2.75-1.5-5.51-3-8.26-4.47l-4.4-2.4-5.39-3c-1.52-.83-3-1.64-4.55-2.47-2.94-1.61-5.86-3.23-8.79-4.85-1.89-1-3.77-2.1-5.67-3.13-1.09-.58-2.21-1.12-3.32-1.68h-.31v-.32a15.38,15.38,0,0,0,1.62-.68c.89-.5,1.73-1.07,2.61-1.59L67,246.66a6,6,0,0,1,2.06,1.23c4.28,4.25,8.5,8.56,12.92,12.67,3.63,3.37,7,7,10.55,10.48a14.81,14.81,0,0,0,5,3.52l1.63,1.3.63,1c.11,1.17.21,2.34.34,3.51.21,2,.46,4,.68,6.06a1.25,1.25,0,0,0,.94,1.16Z" style="fill:#474747"/><path d="M45.55,83a.3.3,0,0,1,.06-.22c.32-.18.66-.36,1-.56q8.56-5.53,17.12-11.08c5.11-3.32,10.22-6.66,15.33-10,.5-.32,1-.55,1.57-.82C80.06,62,79.53,63.66,79,65.29q-3.19,9.27-6.4,18.53L69.2,93.63Q66,103,62.79,112.33a1.77,1.77,0,0,1-1.17-1c-.59-1-1.2-2.06-1.79-3.09-1.6-2.82-3.2-5.63-4.78-8.46-1.25-2.21-2.45-4.45-3.7-6.66-1.52-2.67-3.07-5.33-4.62-8a8.66,8.66,0,0,0-.57-.76l-.25.76A4.77,4.77,0,0,1,45.55,83Z" style="fill:#424242"/><path d="M101.73,287.57a1.25,1.25,0,0,1-.94-1.16c-.22-2-.47-4-.68-6.06-.13-1.17-.23-2.34-.34-3.51a8.08,8.08,0,0,1,.53-1.32q3.84-5.77,7.71-11.53l.64-.93a3.1,3.1,0,0,1,2.26-1.39,10.07,10.07,0,0,1,1.45-.08h3.22a2.66,2.66,0,0,0,1.7-.37l0-1.58a11.3,11.3,0,0,1,.32,1.24,1.2,1.2,0,0,0,1,1.11l3.91,1a4.62,4.62,0,0,0,.63.11.73.73,0,0,0,.85-.58c0-.21.07-.42.1-.64a1.24,1.24,0,0,1,.19.45,2.27,2.27,0,0,0,1.09,1.7c1.77,1.41,3.51,2.88,5.29,4.28a3.42,3.42,0,0,1,1.36,2.1c.62,3,1.33,5.9,2,8.84a2.4,2.4,0,0,1-.24,1.87,37.25,37.25,0,0,1-2,3.7c-1.14.13-2.26.27-3.38.38l-14.52,1.42c-2.63.27-5.26.56-7.9.82-.86.08-1.72.12-2.58.17Z" style="fill:#212121"/><path d="M57.3,287.48l8.08,0h33a4.74,4.74,0,0,1,2.38.3c-.65,0-1.3.07-1.94.06q-20,0-40-.09c-2.91,0-5.83-.22-8.74-.36s-5.93-.34-8.89-.48c-5.34-.26-10.69-.47-16-.76-4-.22-8-.54-12-.81L6.88,285a2.58,2.58,0,0,1-1.56-.33,1.4,1.4,0,0,0,.75-1.17c.27-1.44.53-2.87.82-4.3a29.29,29.29,0,0,0,.77-7.23,2.79,2.79,0,0,1,.24.6c.15,1,.82,1.32,1.73,1.35l1.46,0c.48,0,1,0,1.45.06l3.72.27,1.29.08,3.39.24a11.64,11.64,0,0,1,1.45.09,20.26,20.26,0,0,0,4,.23h.68a42.13,42.13,0,0,0,7.1.34c.32,0,.64.06,1,.08,1,.08,2,.18,3,.23a24,24,0,0,1,3.07.08,35.88,35.88,0,0,0,5.17.25c.75,0,1.51.09,2.26.14s1.5.16,2.25.17a27,27,0,0,1,5.16.3,7.11,7.11,0,0,0,1.13,0v9.42A1.21,1.21,0,0,0,57.3,287.48Z" style="fill:#585858"/><path d="M45.55,83a4.7,4.7,0,0,0,.36,2.06c0,.49,0,1,.06,1.46.32,2.89.65,5.79,1,8.68.49,4.12,1,8.24,1.51,12.36.44,3.64.86,7.28,1.29,10.92l.36,3.06.87,7.55.78,6.91.3,1.3c0,.1,0,.21,0,.31l-3.48,5c-1.25,1.81-2.48,3.64-3.75,5.44-.46.65-1,1.24-1.53,1.86a3.32,3.32,0,0,1-2.38-.8c-1.41-1.17-2.85-2.31-4.32-3.4a4.31,4.31,0,0,1-1.75-2.62c.06-.43.09-.86.16-1.28q.56-3.19,1.13-6.39,1.26-7.19,2.51-14.37c.66-3.73,1.35-7.45,2-11.17q1.11-6.23,2.19-12.45.95-5.35,1.88-10.7a1.75,1.75,0,0,0-.17-1.4Z" style="fill:#575757"/><path d="M171.18,160c-.3.44-.56.91-.89,1.33Q144.67,193.64,119,225.9c-.46.58-1.08,1.09-1.06,1.94l-1,.32a8.76,8.76,0,0,1,.49-1.19q4.94-8.66,9.91-17.29c2.69-4.68,5.42-9.35,8.11-14,2.82-4.93,5.59-9.87,8.41-14.8,3.12-5.43,6.27-10.85,9.39-16.28.48-.84.88-1.73,1.32-2.59l.32-.65.33-.32h.32c1.17-.1,2.35-.25,3.53-.28,2.15-.07,4.29-.13,6.44-.32C167.42,160.23,169.31,160.38,171.18,160Z" style="fill:#242424"/><path d="M144,5.28c.7-.5,1.38-1,2.1-1.5,1.43-1,2.88-1.91,4.33-2.85a9.18,9.18,0,0,1,1-.48c.16.62.26,1.26.48,1.87,1.12,3.2,2.27,6.4,3.4,9.6,1.37,3.86,2.75,7.72,4.11,11.59.17.5.28,1,.43,1.54H121.52a6.54,6.54,0,0,0-2.56.28,1.41,1.41,0,0,1,.61-.94c.57-.4,1.16-.79,1.72-1.21l11.45-8.74c3.17-2.42,6.36-4.83,9.54-7.24.6-.46,1.18-.94,1.76-1.43C144.25,5.61,144.17,5.42,144,5.28Z" style="fill:#616161"/><path d="M80.6,60.38c-.52.27-1.07.5-1.57.82-5.11,3.31-10.22,6.65-15.33,10q-8.55,5.55-17.12,11.08c-.31.2-.65.38-1,.56l.93-2.32c.11.2.24.39.5.26a.89.89,0,0,0,.35-.32q2.37-3.29,4.72-6.58c1.92-2.67,3.83-5.36,5.76-8,1.48-2.06,3-4.1,4.46-6.16,2-2.86,4-5.73,6.1-8.58,1.89-2.64,3.82-5.24,5.72-7.86,2.69-3.72,5.39-7.44,8-11.17a15.48,15.48,0,0,0,1-1.83l.35-.32a2.91,2.91,0,0,1,.25,1.88c-.21,1.82-.4,3.64-.59,5.45-.14,1.39-.28,2.79-.43,4.17s-.35,2.78-.5,4.17c-.22,2-.41,4-.6,5.93-.15,1.5-.25,3-.42,4.5s-.41,2.76-.61,4.14Z" style="fill:#7b7b7b"/><path d="M175.08,26c.26.42-.08.7-.26,1-1.19,2-2.39,4-3.58,6q-4.78,8-9.58,16c-.28.47-.59.91-.89,1.36a11,11,0,0,1-1.33,1.14q-6.49,4.08-13,8.1l-7.7,4.73-.35,0c.16-.34.3-.69.48-1,.83-1.51,1.65-3,2.49-4.54L145,52.12q2.26-4.09,4.54-8.2c1.41-2.55,2.79-5.11,4.2-7.65,2-3.63,4-7.25,6.06-10.88a3,3,0,0,1,1.73-.22c.91.11,1.82.15,2.74.22l2.09.17c.64.06,1.28.11,1.93.15a11.55,11.55,0,0,1,1.77.06A25.38,25.38,0,0,0,175.08,26Z" style="fill:#1b1b1b"/><path d="M165.06,77.35c-.4,2.61-.78,5.22-1.19,7.82q-1.22,7.67-2.44,15.31c-.43,2.66-.88,5.31-1.32,8a8.86,8.86,0,0,0-.31,1.23c-.12.9-.18,1.81-.29,2.71s-.24,1.7-.37,2.55q-.66,4.23-1.3,8.44a1.14,1.14,0,0,1-.73,1,6.1,6.1,0,0,0-.57.29l-8.43,1.66-1,.29-.64,0-1,.29-.65,0-1,.29-.65,0-1,.29-.65,0-1,.28-.65,0-1,.29-.66,0-.67.27-.95.05-.67.28-1,0-.67.27-.62,0h-.93c.06-.19.06-.45.19-.56.45-.39.93-.73,1.41-1.09,3-2.23,6-4.46,8.91-6.71a10,10,0,0,0,1.11-1.14c.17-.4.31-.8.49-1.19q3.91-8.3,7.83-16.57,5.44-11.5,10.86-23l.32-.68h0l.32-.66h0l.31-.64a1.14,1.14,0,0,0,.09-.26Z" style="fill:#1d1d1d"/><path d="M156.54,124.65a6.1,6.1,0,0,1,.57-.29,1.14,1.14,0,0,0,.73-1q.65-4.22,1.3-8.44c.13-.85.26-1.69.37-2.55s.17-1.81.29-2.71a8.86,8.86,0,0,1,.31-1.23,3.59,3.59,0,0,0,.94,2.79c4,5.38,8,10.8,12,16.21l.86,1.17a.94.94,0,0,1,.16.91c-.21.31-.45.61-.64.93-1.21,2-2.42,4.06-3.61,6.11-1.85,3.15-3.67,6.32-5.51,9.48a1.91,1.91,0,0,1-.66-1.08c-.52-1.82-1.07-3.62-1.6-5.44q-1.83-6.3-3.65-12.59c-.06-.19-.13-.43-.43-.3,0,0-.07.09-.07.14,0,3.39-.29,6.8.21,10.18a10.13,10.13,0,0,1,.06,1.46c0,1.18,0,2.37,0,3.56a25.21,25.21,0,0,1-.24,2.89q-.87,5.61-1.79,11.19c-.13.8-.36,1.57-.55,2.35v-.32c0-1.09,0-2.17,0-3.25a3.53,3.53,0,0,0,.32-2,20.77,20.77,0,0,1,.26-4.52,5.21,5.21,0,0,0,.06-1c.12-2.48.14-5,.38-7.44.16-1.67.28-3.33.29-5,0-.33.07-.65.1-1l.21-2.58c.07-.81.16-1.61.2-2.42q.08-1.62.09-3.24A1,1,0,0,0,156.54,124.65Z" style="fill:#474747"/><path d="M83.21,30.22a15.48,15.48,0,0,1-1,1.83c-2.66,3.73-5.36,7.45-8,11.17-1.9,2.62-3.83,5.22-5.72,7.86-2.05,2.85-4.06,5.72-6.1,8.58-1.48,2.06-3,4.1-4.46,6.16-1.93,2.67-3.84,5.36-5.76,8q-2.36,3.3-4.72,6.58a.89.89,0,0,1-.35.32c-.26.13-.39-.06-.5-.26a6.23,6.23,0,0,1,.22-.77L59.45,48c.14-.35.3-.7.42-1.06a3.77,3.77,0,0,1,1.55-2c3.43-2.45,6.83-4.94,10.24-7.41.7-.5,1.42-1,2.13-1.48.52.36.92,0,1.31-.25q3.14-2.14,6.26-4.3a4.46,4.46,0,0,0,.58-.57Z" style="fill:#6c6c6c"/><path d="M138.72,64.34l7.7-4.73q6.51-4,13-8.1a11,11,0,0,0,1.33-1.14,3.27,3.27,0,0,0,.19,1.69c.29.94.52,1.9.78,2.86a1.89,1.89,0,0,0-.09,1.56c.48,2.44.94,4.88,1.41,7.32.67,3.44,1.35,6.87,2.06,10.48l.5-.55-.33,1.93-4.23-1.24a1.51,1.51,0,0,0,.15-.36,4.24,4.24,0,0,0-.7-.37l-10.33-4.08-8.54-3.36-2.42-1.07C138.85,65,138.61,64.78,138.72,64.34Z" style="fill:#3f3f3f"/><path d="M175.08,26a25.38,25.38,0,0,1-5-.26,11.55,11.55,0,0,0-1.77-.06c-.65,0-1.29-.09-1.93-.15l-2.09-.17c-.92-.07-1.83-.11-2.74-.22a3,3,0,0,0-1.73.22c0-.11,0-.22,0-.34-.15-.51-.26-1-.43-1.54-1.36-3.87-2.74-7.73-4.11-11.59-1.13-3.2-2.28-6.4-3.4-9.6-.22-.61-.32-1.25-.48-1.87l9.2-.45a7.27,7.27,0,0,1,.63.82Q168,13,174.79,25.28A6.13,6.13,0,0,1,175.08,26Z" style="fill:#262626"/><path d="M83.21,30.22l-1.27.69-.38-.41,1.67-1.22.63-.4c.42-.34.83-.69,1.27-1q8.67-6.27,17.35-12.51c.22-.16.45-.3.66-.48a1.77,1.77,0,0,1,1.65-.35c3.48.77,7,1.48,10.46,2.22,2.32.49,4.65,1,7,1.49.42.09.83.22,1.24.34a12.61,12.61,0,0,1-.84,1.53c-.74,1.05-1.55,2-2.31,3.07-.28.38-.49.81-.74,1.22a1.41,1.41,0,0,0-.61.94l-.37,0c-1,.07-1.94.12-2.9.23-2,.22-4,.49-6,.73-2.14.26-4.29.5-6.43.77l-9,1.16L84.21,29.61l-.65.29Z" style="fill:#474747"/><path d="M44.6,85.4a1.75,1.75,0,0,1,.17,1.4q-.95,5.34-1.88,10.7Q41.81,103.73,40.7,110c-.66,3.72-1.35,7.44-2,11.17q-1.26,7.19-2.51,14.37-.57,3.19-1.13,6.39c-.07.42-.1.85-.16,1.28a8.69,8.69,0,0,0-.32,1.07c-.19,1-.33,1.91-.5,2.86q-.91,5.25-1.84,10.49-.69,3.9-1.44,7.78c-.05.25.05.63-.46.81.06-.66.1-1.24.16-1.82s.11-1,.17-1.44q.78-8.24,1.55-16.47c.48-5.27.94-10.55,1.43-15.82s1-10.55,1.49-15.83c.21-2.26.39-4.52.64-6.78a6.74,6.74,0,0,1,.46-1.87q3.95-9.94,7.94-19.88C44.29,86,44.46,85.68,44.6,85.4Z" style="fill:#474747"/><path d="M26.43,274.88a20.26,20.26,0,0,1-4-.23,11.64,11.64,0,0,0-1.45-.09l-3.39-.24-1.29-.08L12.54,274c-.48,0-1,0-1.45-.06l-1.46,0c-.91,0-1.58-.35-1.73-1.35a2.39,2.39,0,0,0-.25-.6c-.13-2.58-.24-5.16-.4-7.74-.18-2.89-.41-5.79-.6-8.69a6.18,6.18,0,0,0-.59-2.65,1.11,1.11,0,0,1,.31-1c.5.48,1,.93,1.51,1.44.91,1,1.77,2.05,2.65,3.07,3.07,3.55,6.13,7.11,9.22,10.66a12.23,12.23,0,0,0,1.19,1.07v0a3.5,3.5,0,0,0,1.31,1.7,9.85,9.85,0,0,0,.68,1.08c1,1.18,2.09,2.34,3.13,3.51A5,5,0,0,1,26.43,274.88Z" style="fill:#7d7d7d"/><path d="M164.32,146.05c1.84-3.16,3.66-6.33,5.51-9.48,1.19-2,2.4-4.08,3.61-6.11.19-.32.43-.62.64-.93l0,1a3.76,3.76,0,0,0-.24,2.34c-.16,2-.31,4.09-.49,6.13-.39,4.24-.8,8.48-1.19,12.72-.24,2.53-.47,5.05-.71,7.58a4.68,4.68,0,0,1-.23.76c-1.87.34-3.76.19-5.63.36-2.15.19-4.29.25-6.44.32-1.18,0-2.36.18-3.53.28a17.59,17.59,0,0,1,1.39-1.34c2.45-1.95,4.9-3.89,7.39-5.79a2,2,0,0,0,.8-2.26c-.26-1.05-.49-2.11-.69-3.17A4.51,4.51,0,0,1,164.32,146.05Z" style="fill:#1c1c1c"/><path d="M7.31,187.28H7c.13-.36.22-.73.37-1.07q4.68-10.51,9.37-21c.22-.48.48-.95.69-1.39a8.09,8.09,0,0,1,2.83-.18l-1.59.57c.66.35,1.11.63,1.59.85q4,1.84,8.09,3.66c.54.24,1.11.42,1.34,1.06-2.3,1.78-4.6,3.57-6.91,5.34-4.58,3.5-9.18,7-13.76,10.5A20.9,20.9,0,0,0,7.31,187.28Z" style="fill:#626262"/><path d="M29.71,169.77c-.23-.64-.8-.82-1.34-1.06q-4.05-1.82-8.09-3.66c-.48-.22-.93-.5-1.59-.85l1.59-.57,4.79-.35,5.59-.37c-.06.48-.12,1-.17,1.44s-.1,1.16-.16,1.82c.51-.18.41-.56.46-.81q.75-3.88,1.44-7.78.93-5.24,1.84-10.49c.17-1,.31-1.91.5-2.86a8.69,8.69,0,0,1,.32-1.07,4.31,4.31,0,0,0,1.75,2.62c1.47,1.09,2.91,2.23,4.32,3.4a3.32,3.32,0,0,0,2.38.8c-.28.52-.52,1.06-.84,1.55-.87,1.3-1.78,2.57-2.67,3.85L32.45,166c-.55.8-1.07,1.61-1.62,2.41a1.23,1.23,0,0,0-.14,1.36h-1Z" style="fill:#535353"/><path d="M117,228.16l1-.32c.29,1.42.62,2.84.88,4.26q2.13,11.61,4.22,23.22c.08.42.08.86.12,1.29l.27,1.4a.26.26,0,0,1,0,.27,2.71,2.71,0,0,0,.31,1.68.17.17,0,0,1,0,.22l.27,1.4a.26.26,0,0,1,0,.28c0,.22,0,.43-.1.64a.73.73,0,0,1-.85.58,4.62,4.62,0,0,1-.63-.11l-3.91-1a1.2,1.2,0,0,1-1-1.11,11.3,11.3,0,0,0-.32-1.24c0-.64,0-1.29-.09-1.93-.19-3.28-.4-6.55-.57-9.82-.15-2.8-.25-5.59-.38-8.39a.92.92,0,0,0,0-.16,38.27,38.27,0,0,1-.29-6c0-.75,0-1.49,0-2.24A4,4,0,0,1,117,228.16Z" style="fill:#1c1c1c"/><path d="M161.06,74.42l4.23,1.24a2.37,2.37,0,0,1-.23,1.69l-.32-.63c-.43-.19-.72.09-1,.33l-5.58,4.66-5.33,4.47L148.22,90l-5,4.15a9.69,9.69,0,0,1,.38-1.07c1-2.2,2.08-4.39,3.12-6.59.67-1.42,1.33-2.84,2-4.28a8.18,8.18,0,0,0,.39-1.39,4.59,4.59,0,0,0,.68-.86c1.19-2.5,2.35-5,3.52-7.54l1.7.4,4.77,1.24.68.26Z" style="fill:#6f6f6f"/><path d="M6.06,252.86a6.18,6.18,0,0,1,.59,2.65c.19,2.9.42,5.8.6,8.69.16,2.58.27,5.16.4,7.74a28.81,28.81,0,0,1-.76,7.23c-.29,1.43-.55,2.86-.82,4.3a1.4,1.4,0,0,1-.75,1.17,47.59,47.59,0,0,1-5.2-1.93c.07-.56.1-1,.19-1.5l5.46-27.09C5.85,253.69,6,253.28,6.06,252.86Z" style="fill:#484848"/><path d="M119.57,24.41c.25-.41.46-.84.74-1.22.76-1,1.57-2,2.31-3.07a12.61,12.61,0,0,0,.84-1.53c.57-.31,1.16-.58,1.69-.93q8.31-5.49,16.6-11c.72-.47,1.46-.91,2.2-1.37.22.14.3.33.09.51-.58.49-1.16,1-1.76,1.43-3.18,2.41-6.37,4.82-9.54,7.24L121.29,23.2C120.73,23.62,120.14,24,119.57,24.41Z" style="fill:#525252"/><path d="M20.94,268.09A12.23,12.23,0,0,1,19.75,267c-3.09-3.55-6.15-7.11-9.22-10.66-.88-1-1.74-2.07-2.65-3.07-.46-.51-1-1-1.51-1.44-.62-1.06-1.21-2.14-1.84-3.2-.91-1.52-1.85-3-2.77-4.54.53,0,.73.44,1,.75,1.36,1.67,2.69,3.36,4,5q4.8,6.08,9.62,12.14c1.34,1.69,2.7,3.36,4,5.05A6.64,6.64,0,0,1,20.94,268.09Z" style="fill:#252525"/><path d="M165.62,73.73l-.5.55c-.71-3.61-1.39-7-2.06-10.48-.47-2.44-.93-4.88-1.41-7.32a1.89,1.89,0,0,1,.09-1.56c.55,1.74,1.11,3.48,1.64,5.23.88,2.89,1.73,5.78,2.62,8.66a3.9,3.9,0,0,1,.13,2.06C165.92,71.81,165.78,72.77,165.62,73.73Z" style="fill:#1f1f1f"/><path d="M81.56,30.5l.38.41a4.46,4.46,0,0,1-.58.57q-3.12,2.16-6.26,4.3c-.39.27-.79.61-1.31.25Z" style="fill:#636363"/><path d="M173.8,132.85a3.76,3.76,0,0,1,.24-2.34A4.91,4.91,0,0,1,173.8,132.85Z" style="fill:#474747"/><path d="M123.79,260a2.71,2.71,0,0,1-.31-1.68Z" style="fill:#212121"/><path d="M101.73,287.57l1.71,0-1.71.24Z" style="fill:#4e4e4e"/><path d="M123.45,258l-.27-1.4Z" style="fill:#212121"/><path d="M124.09,261.58l-.27-1.4Z" style="fill:#212121"/><path d="M83.86,28.88l-.63.4Z" style="fill:#636363"/><path d="M29.71,169.77H30c.1.48.22,1,.3,1.43q.62,3.59,1.2,7.19,1.05,6.3,2.09,12.62,1.38,8.22,2.75,16.45l1.74,10.38q1,6.06,2,12.14a1.71,1.71,0,0,0,.61,1.1l-.29.66h-.33l-8-10.8c-1.61-2.16-3.2-4.34-4.82-6.51L12,194.06q-2-2.59-3.84-5.22a14.66,14.66,0,0,1-.85-1.56A20.9,20.9,0,0,1,9,185.61c4.58-3.52,9.18-7,13.76-10.5C25.11,173.34,27.41,171.55,29.71,169.77Z" style="fill:#4d4d4d"/><path d="M40.42,231.73l.29-.66c1.3-2.67,2.6-5.34,3.88-8,2.1-4.38,4.17-8.77,6.26-13.16q3.42-7.16,6.83-14.31c1.75-3.65,3.53-7.29,5.28-10.94,1.08-2.23,2.14-4.47,3.2-6.72.2-.44.35-.9.53-1.35,1.18-.11,2.36-.25,3.54-.32,2.26-.15,4.52-.25,6.78-.38.22,0,.43-.08.64-.1.7-.06,1.4-.13,2.1-.17,2.31-.13,4.64-.17,6.94-.4,1.34-.14,2.68-.26,4-.27.33,0,.65-.06,1-.09l2.9-.22,0,.4a8.44,8.44,0,0,1-.47.83c-2.19,3.07-4.38,6.12-6.56,9.19-1,1.49-2.07,3-3.1,4.52a2.18,2.18,0,0,0-.6,1.93c0,2.32,0,4.64,0,7,0,.59,0,1.18-.09,1.77-.07,1-.22,2-.22,3.06,0,8.31,0,16.62,0,24.93,0,.75,0,1.5-.1,2.26-.06,1-.14,1.93-.21,2.89l-4.85,4-8.47,7L68,245.69q-11.55-5.77-23.1-11.54c-1.35-.67-2.77-1.18-4.15-1.77l-.32-.33Z" style="fill:#2d2d2d"/><path d="M40.42,232.05l.32.33,7,9.1c1.08,1.41,2.17,2.82,3.24,4.24q2.68,3.54,5.35,7.1v.32l-7.41,5.48L36.11,268l-9,6.59a1.48,1.48,0,0,1,0-1.25c.5-1.6,1-3.2,1.49-4.79q2.3-7.08,4.61-14.15,1.62-5,3.22-10c1-3.08,1.92-6.18,2.89-9.26C39.68,234.08,40.06,233.07,40.42,232.05Z" style="fill:#474747"/><path d="M27.11,274.57l9-6.59,12.79-9.36,7.41-5.48h.31c0,1.67,0,3.34,0,5,0,.59,0,1.18.09,1.77.07,1,.19,2,.21,3.05,0,1.56,0,3.12,0,4.68,0,.59.06,1.18.1,1.77.07.91.19,1.82.21,2.73,0,1.45,0,2.9,0,4.35a7.11,7.11,0,0,1-1.13,0,27,27,0,0,0-5.16-.3c-.75,0-1.5-.12-2.25-.17s-1.51-.12-2.26-.14a35.88,35.88,0,0,1-5.17-.25,24,24,0,0,0-3.07-.08c-1,0-2-.15-3-.23-.33,0-.65-.07-1-.08a42.13,42.13,0,0,1-7.1-.34Z" style="fill:#616161"/><path d="M22.24,269.77a3.5,3.5,0,0,1-1.31-1.7A2.62,2.62,0,0,1,22.24,269.77Z" style="fill:#252525"/><path d="M117.28,261.21a2.66,2.66,0,0,1-1.7.37h-3.22a10.07,10.07,0,0,0-1.45.08,3.1,3.1,0,0,0-2.26,1.39L108,264q-3.86,5.76-7.71,11.53a8.08,8.08,0,0,0-.53,1.32l-.63-1c-.37-1.13-.67-2.28-1.11-3.38q-4.61-11.76-9.26-23.5c-1.54-3.92-3.06-7.84-4.6-11.76,0-.1,0-.2,0-.3l2.26-2.27c.2,0,.46,0,.59-.15,1.18-1,2.34-2.07,3.49-3.11.36-.32.7-.67,1.06-1,1.73-1.54,3.47-3.06,5.18-4.61s3.33-3,5-4.58A2.48,2.48,0,0,1,102,221c.36,2.34.73,4.67,1.1,7a2,2,0,0,0,.19.45c.75,4,1.51,8,2.24,11.93a10,10,0,0,0,1.32,3.45c2.4,4,4.76,8.09,7.16,12.13C115.09,257.75,116.2,259.47,117.28,261.21Z" style="fill:#2b2b2b"/><path d="M57.27,276.5c0-1.45,0-2.9,0-4.35,0-.91-.14-1.82-.21-2.73,0-.59-.09-1.18-.1-1.77,0-1.56,0-3.12,0-4.68,0-1-.14-2-.21-3.05,0-.59-.09-1.18-.09-1.77,0-1.66,0-3.33,0-5,1.11.56,2.23,1.1,3.32,1.68,1.9,1,3.78,2.09,5.67,3.13,2.93,1.62,5.85,3.24,8.79,4.85,1.51.83,3,1.64,4.55,2.47l5.39,3,4.4,2.4c2.75,1.49,5.51,3,8.26,4.47a3.1,3.1,0,0,1,1.41,1.17,2.89,2.89,0,0,1-.66.18c-.54,0-1.08,0-1.62,0H60a6.25,6.25,0,0,0-2.71.32Z" style="fill:#4e4e4e"/><path d="M84.17,237.22c1.54,3.92,3.06,7.84,4.6,11.76q4.64,11.75,9.26,23.5c.44,1.1.74,2.25,1.11,3.38l-1.63-1.3c-.41-.42-.82-.85-1.25-1.26s-.76-.6-1.1-.94c-5.62-5.46-11-11.17-16.75-16.46-3-2.77-5.83-5.79-8.74-8.69A3.47,3.47,0,0,0,68,246v-.32l1.93-1.3c.72.37,1.24-.16,1.78-.45,2-1.06,4-2.16,5.94-3.23C79.81,239.53,82,238.38,84.17,237.22Z" style="fill:#3e3e3e"/><path d="M68,245.69V246l-1,.65-6.47,3.89c-.88.52-1.72,1.09-2.61,1.59a15.38,15.38,0,0,1-1.62.68q-2.67-3.56-5.35-7.1c-1.07-1.42-2.16-2.83-3.24-4.24l-7-9.1c1.38.59,2.8,1.1,4.15,1.77Q56.46,239.9,68,245.69Z" style="fill:#373737"/><path d="M67,246.66l1-.65a3.47,3.47,0,0,1,1.69,1.2c2.91,2.9,5.71,5.92,8.74,8.69,5.78,5.29,11.13,11,16.75,16.46.34.34.75.61,1.1.94s.84.84,1.25,1.26a14.81,14.81,0,0,1-5-3.52C89,267.56,85.62,263.93,82,260.56c-4.42-4.11-8.64-8.42-12.92-12.67A6,6,0,0,0,67,246.66Z" style="fill:#474747"/><path d="M57.3,287.48a1.21,1.21,0,0,1,0-1.56Z" style="fill:#4e4e4e"/><path d="M80.6,60.38l.06-.24c.59,0,1.18,0,1.78,0,2.59,0,5.17.11,7.76.24,3.61.18,7.24.07,10.85.09a4,4,0,0,0,1.88.29l5.6.05a12,12,0,0,0,1.57.28c.8,0,1.61,0,2.42,0a8.87,8.87,0,0,1,2,.34c3,.92,5.94,1.89,8.91,2.84l5.23,1.63a1.51,1.51,0,0,0,1.25,0,3.54,3.54,0,0,1,.32,1.87,3.12,3.12,0,0,0,.32,1.7,5,5,0,0,0-.32,2.06q0,5.9,0,11.79c0,.43,0,.86.07,1.29.08,1.13.2,2.25.23,3.38,0,1.61,0,3.23,0,4.84H107.18a4,4,0,0,0-2.21.33,1.91,1.91,0,0,0-1.54.27c-3.27,1.54-6.55,3-9.81,4.6-2.59,1.22-5.16,2.46-7.73,3.7-3,1.45-6,2.89-9,4.35-4.08,2-8.15,4-12.23,5.93a13.92,13.92,0,0,1-1.82.62h0v-.33Q66,103,69.2,93.63l3.37-9.81q3.2-9.25,6.4-18.53C79.53,63.66,80.06,62,80.6,60.38Z" style="fill:#252525"/><path d="M62.79,112.33v.33c-.15.29-.32.56-.45.86-1.78,4.16-3.57,8.32-5.34,12.49-1.28,3-2.55,6.06-3.83,9.09a3.43,3.43,0,0,1-1.08,1.58l-.31-.65L51,129.12l-.87-7.55-.36-3.06c-.43-3.64-.85-7.28-1.29-10.92-.5-4.12-1-8.24-1.51-12.36-.35-2.89-.68-5.79-1-8.68-.06-.48,0-1-.06-1.46.07-.19.13-.38.25-.75a8.66,8.66,0,0,1,.57.76c1.55,2.66,3.1,5.32,4.62,8,1.25,2.21,2.45,4.45,3.7,6.66,1.58,2.83,3.18,5.64,4.78,8.46.59,1,1.2,2.05,1.79,3.09A1.77,1.77,0,0,0,62.79,112.33Z" style="fill:#353535"/><path d="M117.28,261.21c-1.08-1.74-2.19-3.46-3.23-5.22-2.4-4-4.76-8.1-7.16-12.13a10,10,0,0,1-1.32-3.45c-.73-4-1.49-8-2.24-11.93a3.89,3.89,0,0,1,1.24-.21c3.25.49,6.49,1,9.74,1.56,1,.17,1.27.47,1.35,1.49a4.93,4.93,0,0,0,.32,2.05,38.27,38.27,0,0,0,.29,6,.92.92,0,0,1,0,.16c.13,2.8.23,5.59.38,8.39.17,3.27.38,6.54.57,9.82,0,.64.06,1.29.09,1.93S117.3,260.68,117.28,261.21Z" style="fill:#5a5a5a"/><path d="M94.59,174.63l-2.9.22c-.32,0-.64.09-1,.09-1.35,0-2.69.13-4,.27-2.3.23-4.63.27-6.94.4-.7,0-1.4.11-2.1.17-.21,0-.42.09-.64.1-2.26.13-4.52.23-6.78.38-1.18.07-2.36.21-3.54.32a7.58,7.58,0,0,0-.77-.24c-3.23-.61-6.46-1.2-9.68-1.82-6.87-1.32-13.74-2.67-20.61-4-1.64-.31-3.29-.52-4.94-.78a1.23,1.23,0,0,1,.14-1.36c.55-.8,1.07-1.61,1.62-2.41l7.38-10.6c.89-1.28,1.8-2.55,2.67-3.85.32-.49.56-1,.84-1.55.51-.62,1.07-1.21,1.53-1.86,1.27-1.8,2.5-3.63,3.75-5.44l3.48-5,.35,0,.63.62c-.11.39.13.6.39.82,1.82,1.52,3.64,3,5.44,4.58,2.62,2.25,5.21,4.53,7.82,6.8l2.72,2.3c1.11.94,2.23,1.86,3.33,2.81s2.18,1.94,3.29,2.88c1.85,1.58,3.72,3.13,5.57,4.69.87.73,1.72,1.48,2.57,2.23,1.17,1,2.32,2.1,3.51,3.11,1.84,1.58,3.72,3.11,5.56,4.7A14.8,14.8,0,0,1,94.59,174.63Z" style="fill:#3b3b3b"/><path d="M52.46,137.66l-.36,0c0-.1,0-.21,0-.31s0-.44,0-.65a3.43,3.43,0,0,0,1.08-1.58c1.28-3,2.55-6.07,3.83-9.09,1.77-4.17,3.56-8.33,5.34-12.49.13-.3.3-.57.45-.86h0c0,.21,0,.42,0,.64l1.84,2.45q4,5.31,7.94,10.6c1.62,2.15,3.29,4.27,4.9,6.43a2.21,2.21,0,0,0,1.91,1,5.75,5.75,0,0,1-.77.25l-9.79,1.37c-3.48.48-6.95,1-10.43,1.47C56.42,137.15,54.44,137.4,52.46,137.66Z" style="fill:#2e2e2e"/><path d="M52.09,136.68c0,.21,0,.43,0,.65l-.3-1.3C51.88,136.24,52,136.46,52.09,136.68Z" style="fill:#3b3b3b"/><path d="M116,233.37a4.93,4.93,0,0,1-.32-2.05c-.08-1-.33-1.32-1.35-1.49-3.25-.54-6.49-1.07-9.74-1.56a3.89,3.89,0,0,0-1.24.21,2,2,0,0,1-.19-.45c-.37-2.34-.74-4.67-1.1-7,.11-.22.23-.43.34-.64.46.11.71-.22,1-.49,1-1.12,2-2.26,3-3.39l4.17-4.74.85-1c1.09-1.26,2.17-2.54,3.28-3.79s2.4-2.64,3.58-4c1.59-1.77,3.15-3.55,4.73-5.33l.74-.85c1.09-1.27,2.17-2.55,3.28-3.8s2.39-2.63,3.58-4c1.62-1.81,3.22-3.63,4.83-5.45.22-.24.42-.5.63-.74,1.1-1.27,2.17-2.54,3.28-3.8s2.4-2.63,3.58-4c1.51-1.69,3-3.4,4.5-5.1,1.07-1.22,2.15-2.42,3.21-3.64s2-2.39,3-3.57a9.86,9.86,0,0,1,1-.84c-.44.86-.84,1.75-1.32,2.59-3.12,5.43-6.27,10.85-9.39,16.28-2.82,4.93-5.59,9.87-8.41,14.8-2.69,4.68-5.42,9.35-8.11,14q-5,8.64-9.91,17.29a8.76,8.76,0,0,0-.49,1.19,4,4,0,0,0-1,3C116,231.88,116,232.62,116,233.37Z" style="fill:#333"/><path d="M155.26,161l-.33.32a7.33,7.33,0,0,0-3,.51c-1.42.53-2.83,1-4.26,1.54l-12.79,4.54a2.17,2.17,0,0,1-2-.12,4.31,4.31,0,0,1,.22-.6c1.5-2.66,3-5.31,4.52-8a18.37,18.37,0,0,0,.77-1.76c-.26-.19-.5-.41-.77-.58l-6.14-3.57-6.14-3.55a2.19,2.19,0,0,1-1.22-1.42l7.14-17.16c.18-.44.49-.85.31-1.38a2.11,2.11,0,0,1,0-.26l.37,0,.32,0c.52.87,1,1.79,1.58,2.62,1.31,1.78,2.69,3.5,4,5.27,1.65,2.2,3.26,4.42,4.91,6.62,1.26,1.69,2.55,3.35,3.82,5l7.58,10.08a2,2,0,0,0,1.13.87Z" style="fill:#505050"/><path d="M132.87,167.8a2.17,2.17,0,0,0,2,.12l12.79-4.54c1.43-.5,2.84-1,4.26-1.54a7.33,7.33,0,0,1,3-.51c-.11.21-.21.43-.32.65a9.86,9.86,0,0,0-1,.84c-1,1.18-2,2.38-3,3.57s-2.14,2.42-3.21,3.64c-1.5,1.7-3,3.41-4.5,5.1-1.18,1.33-2.4,2.63-3.58,4s-2.18,2.53-3.28,3.8c-.21.24-.41.5-.63.74-1.61,1.82-3.21,3.64-4.83,5.45-1.19,1.33-2.4,2.63-3.58,4s-2.19,2.53-3.28,3.8l-.74.85c-1.58,1.78-3.14,3.56-4.73,5.33-1.18,1.33-2.4,2.64-3.58,4s-2.19,2.53-3.28,3.79l-.85,1-4.17,4.74c-1,1.13-2,2.27-3,3.39-.24.27-.49.6-1,.49q3.25-5.35,6.5-10.7a9,9,0,0,0,1.94-3.52c.31-.43.66-.84.93-1.3.7-1.21,1.35-2.45,2-3.67,2.93-5.15,5.88-10.29,8.8-15.44,2.58-4.55,5.12-9.12,7.7-13.66C131.11,170.64,132,169.23,132.87,167.8Z" style="fill:#4c4c4c"/><path d="M155.26,161v-1h0a2.84,2.84,0,0,0,.33-1.62c.19-.78.42-1.55.55-2.35q.93-5.58,1.79-11.19a25.21,25.21,0,0,0,.24-2.89c0-1.19,0-2.38,0-3.56a10.13,10.13,0,0,0-.06-1.46c-.5-3.38-.2-6.79-.21-10.18,0,0,.05-.09.07-.14.3-.13.37.11.43.3q1.83,6.28,3.65,12.59c.53,1.82,1.08,3.62,1.6,5.44a1.91,1.91,0,0,0,.66,1.08,4.51,4.51,0,0,0,.15,2.39c.2,1.06.43,2.12.69,3.17a2,2,0,0,1-.8,2.26c-2.49,1.9-4.94,3.84-7.39,5.79a17.59,17.59,0,0,0-1.39,1.34Z" style="fill:#393939"/><path d="M118.59,25.39l.37,0a6.54,6.54,0,0,1,2.56-.28H159.8c0,.12,0,.23,0,.34-2,3.63-4,7.25-6.06,10.88-1.41,2.54-2.79,5.1-4.2,7.65Q147.3,48,145,52.12l-3.68,6.64c-.84,1.51-1.66,3-2.49,4.54-.18.33-.32.68-.48,1a.64.64,0,0,1-.78-.4c-.29-.64-.55-1.29-.85-1.92q-2.82-5.84-5.66-11.65-3-6.19-6-12.37c-1.5-3-3-6.09-4.56-9.13-.27-.52-.6-1-.91-1.52s-.36-1.23-1-1.59Z" style="fill:#434343"/><path d="M101.05,60.44c-3.61,0-7.24.09-10.85-.09-2.59-.13-5.17-.22-7.76-.24-.6,0-1.19,0-1.78,0,.2-1.38.44-2.75.61-4.14s.27-3,.42-4.5c.19-2,.38-4,.6-5.93.15-1.39.34-2.78.5-4.17s.29-2.78.43-4.17c.19-1.81.38-3.63.59-5.45a2.91,2.91,0,0,0-.25-1.88l.65-.29c1,1.18,2,2.39,3.07,3.54C89,35,90.74,36.85,92.47,38.7l.1.12c1.77,2,3.51,4,5.29,5.89s3.7,3.93,5.54,5.89l.32.36c1.62,1.81,3.18,3.67,4.86,5.42,1.35,1.39,2.6,2.88,3.85,4.36l-3.25,0a3.39,3.39,0,0,0-1.72-.29Z" style="fill:#636363"/><path d="M119.58,27.33c.31.5.64,1,.91,1.52,1.53,3,3.06,6.08,4.56,9.13q3,6.17,6,12.37,2.83,5.82,5.66,11.65c.3.63.56,1.28.85,1.92a.64.64,0,0,0,.78.4l.35,0c-.11.44.13.67.5.84l2.42,1.07c0,.48.45.56.77.72,1.57.76,3.15,1.5,4.73,2.25l-.48.06c0,.1-.13.21-.11.29q1.27,5.64,2.56,11.27a8.18,8.18,0,0,1-.39,1.39c-.63,1.44-1.29,2.86-2,4.28-1,2.2-2.09,4.39-3.12,6.59a9.69,9.69,0,0,0-.38,1.07l0,4.53c-.1-.58-.23-1.15-.29-1.73s0-1.19-.06-1.78a.93.93,0,0,0-.9-1c-1-.14-2-.24-3-.36l-8.34-1h0c0-1.61,0-3.23,0-4.84,0-1.13-.15-2.25-.23-3.38,0-.43-.07-.86-.07-1.29q0-5.89,0-11.79a5,5,0,0,1,.32-2.06c1.44-2.15,2.89-4.3,4.3-6.46.56-.86.54-1.07-.13-1.86-.89-1.08-1.83-2.12-2.74-3.18s-2-2.38-3.05-3.56a9.74,9.74,0,0,0-1-.84h0c-.55-1.8-1.06-3.61-1.65-5.4-1.85-5.63-3.75-11.24-5.6-16.86C120.32,30,120,28.67,119.58,27.33Z" style="fill:#353535"/><path d="M155.27,160a2,2,0,0,1-1.13-.87l-7.58-10.08c-1.27-1.67-2.56-3.33-3.82-5-1.65-2.2-3.26-4.42-4.91-6.62-1.33-1.77-2.71-3.49-4-5.27-.59-.83-1.06-1.75-1.58-2.62l.63,0,1-.3.62,0,.67-.27,1,0,.67-.28.95-.05.67-.27.66,0,1-.29.65,0,1-.29.65,0,1-.29.65,0,1-.29.65,0,1-.29.64,0,1-.29,8.43-1.66a1,1,0,0,1,1,1.1q0,1.62-.09,3.24c0,.81-.13,1.61-.2,2.42L157,134c0,.32-.1.64-.1,1,0,1.67-.13,3.33-.29,5-.24,2.47-.26,5-.38,7.44a5.21,5.21,0,0,1-.06,1,20.77,20.77,0,0,0-.26,4.52,3.47,3.47,0,0,0-.32,2c0,1.08,0,2.16,0,3.25a3.51,3.51,0,0,0-.32,1.94Z" style="fill:#575757"/><path d="M132.86,129.53l-.63,0-.32,0-5.22-7.13c-.34-.42-.68-.83-1-1.26l-8.58-11.56c-2.86-3.86-5.71-7.72-8.59-11.56-.34-.46-.56-1.08-1.24-1.19a17.53,17.53,0,0,0-2-3.31c.15,0,.35,0,.46.06,1,.69,2.06,1.39,3.08,2.1l9.41,6.58,4.52,3.14,9.55,6.67,6.1,4.27,4,2.78a1.3,1.3,0,0,0,1.19.35,4.13,4.13,0,0,0,.34-2c.09.41.17.82.27,1.22s.22.69.33,1a10,10,0,0,1-1.11,1.14c-3,2.25-5.94,4.48-8.91,6.71-.48.36-1,.7-1.41,1.09-.13.11-.13.37-.19.56S132.88,129.43,132.86,129.53Z" style="fill:#282828"/><path d="M144.53,119.73c-.11-.34-.24-.68-.33-1s-.18-.81-.27-1.22c0-2.81-.08-5.61-.28-8.42-.24-3.44-.29-6.9-.43-10.36,0-1.51,0-3,0-4.53l5-4.15,4.6-3.84,5.33-4.47,5.58-4.66c.29-.24.58-.52,1-.33a1.14,1.14,0,0,1-.09.26l-.31.64h0l-.32.66h0l-.32.68q-5.43,11.51-10.86,23-3.9,8.28-7.83,16.57C144.84,118.93,144.7,119.33,144.53,119.73Z" style="fill:#747474"/><path d="M144.86,127l-1,.29Z" style="fill:#505050"/><path d="M148.11,126.31l-1,.29Z" style="fill:#505050"/><path d="M146.49,126.64l-1,.29Z" style="fill:#505050"/><path d="M132.86,129.53c0-.1,0-.2,0-.3h.93Z" style="fill:#505050"/><path d="M140,127.94l-1,.29Z" style="fill:#505050"/><path d="M141.62,127.62l-1,.29Z" style="fill:#505050"/><path d="M143.24,127.29l-1,.29Z" style="fill:#505050"/><path d="M164.34,77.62l.31-.64Z" style="fill:#6f6f6f"/><path d="M164,78.28l.32-.66Z" style="fill:#6f6f6f"/><path d="M163.71,79l.32-.68Z" style="fill:#6f6f6f"/><path d="M138.37,128.27l-.67.27Z" style="fill:#505050"/><path d="M136.75,128.59l-.67.28Z" style="fill:#505050"/><path d="M135.13,128.92l-.67.27Z" style="fill:#505050"/><path d="M155.26,160a3.51,3.51,0,0,1,.32-1.94v.32A2.84,2.84,0,0,1,155.26,160Z" style="fill:#505050"/><path d="M155.59,154.84a3.47,3.47,0,0,1,.32-2A3.53,3.53,0,0,1,155.59,154.84Z" style="fill:#505050"/><path d="M147.14,69.22c-1.58-.75-3.16-1.49-4.73-2.25-.32-.16-.74-.24-.77-.72l8.54,3.36,10.33,4.08a4.24,4.24,0,0,1,.7.37,1.51,1.51,0,0,1-.15.36l-.6-.08-.68-.26L155,72.84l-1.7-.4c-.72-.38-1.43-.77-2.15-1.14Z" style="fill:#1e1e1e"/><path d="M112.43,60.74c-1.25-1.48-2.5-3-3.85-4.36-1.68-1.75-3.24-3.61-4.86-5.42l-.32-.36c-1.84-2-3.71-3.91-5.54-5.89s-3.52-3.93-5.29-5.89l-.1-.12C90.74,36.85,89,35,87.28,33.15c-1.06-1.15-2-2.36-3.07-3.54l10.11-1.33,9-1.16c2.14-.27,4.29-.51,6.43-.77,2-.24,4-.51,6-.73,1-.11,1.93-.16,2.9-.23l0,.35c0,.22,0,.43-.06.65q-2.34,14-4.67,27.92c-.3,1.81-.56,3.63-.83,5.44Z" style="fill:#5a5a5a"/><path d="M30.69,169.75c1.65.26,3.3.47,4.94.78,6.87,1.32,13.74,2.67,20.61,4,3.22.62,6.45,1.21,9.68,1.82a7.58,7.58,0,0,1,.77.24c-.18.45-.33.91-.53,1.35-1.06,2.25-2.12,4.49-3.2,6.72-1.75,3.65-3.53,7.29-5.28,10.94q-3.42,7.14-6.83,14.31c-2.09,4.39-4.16,8.78-6.26,13.16-1.28,2.67-2.58,5.34-3.88,8a1.71,1.71,0,0,1-.61-1.1q-1-6.08-2-12.14l-1.74-10.38Q35,199.22,33.61,191q-1.05-6.31-2.09-12.62-.59-3.6-1.2-7.19c-.08-.48-.2-.95-.3-1.43Z" style="fill:#585858"/><path d="M159.78,74.08l.68.26Z" style="fill:#3f3f3f"/><path d="M110.82,206.16a9,9,0,0,1-1.94,3.52c-.2,0-.46,0-.59.14a13.64,13.64,0,0,0-1.13,1.15c-1.31,1.49-2.62,3-3.92,4.5-.25.28-.5.56-.74.85-1.09,1.26-2.16,2.54-3.27,3.78s-2.39,2.63-3.57,4c-.89,1-1.75,2-2.63,3.06l-3.27,3.77-3.29,3.77-2.26,2.27a1.37,1.37,0,0,1,0-.29l-.3-1-.65-2.26c.07-1,.15-1.93.21-2.89,0-.76.1-1.51.1-2.26,0-8.31,0-16.62,0-24.93,0-1,.15-2,.22-3.06,0-.59.09-1.18.09-1.77,0-2.32,0-4.64,0-7a2.18,2.18,0,0,1,.6-1.93c.56-.31,1.16-.57,1.68-.93q9.08-6.39,18.11-12.8,6.21-4.4,12.42-8.79c1.81-1.27,3.63-2.52,5.45-3.78l1.3-.64q-1.78,6.13-3.59,12.28c-1,3.47-2.08,6.93-3.11,10.39q-2.5,8.38-5,16.78A15.09,15.09,0,0,0,110.82,206.16Z" style="fill:#343434"/><path d="M94.59,174.63a14.8,14.8,0,0,0-1.31-1.43c-1.84-1.59-3.72-3.12-5.56-4.7-1.19-1-2.34-2.08-3.51-3.11-.85-.75-1.7-1.5-2.57-2.23-1.85-1.56-3.72-3.11-5.57-4.69-1.11-.94-2.18-1.93-3.29-2.88s-2.22-1.87-3.33-2.81l-2.72-2.3c-2.61-2.27-5.2-4.55-7.82-6.8-1.8-1.54-3.62-3.06-5.44-4.58-.26-.22-.5-.43-.39-.82l.31,0,.66.3c.37.09.74.15,1.1.27l20.08,6.84L92,151.4l21.94,7.43,8.28,2.83.67.3h.3l-1.29.94L114.72,166c-5.69,2.48-11.39,4.95-17.08,7.46a10.91,10.91,0,0,0-3,1.54Z" style="fill:#303030"/><path d="M94.62,175a10.91,10.91,0,0,1,3-1.54c5.69-2.51,11.39-5,17.08-7.46l7.13-3.12.3.36c-1.82,1.26-3.64,2.51-5.45,3.78q-6.23,4.38-12.42,8.79-9,6.41-18.11,12.8c-.52.36-1.12.62-1.68.93,1-1.51,2.05-3,3.1-4.52,2.18-3.07,4.37-6.12,6.56-9.19A8.44,8.44,0,0,0,94.62,175Z" style="fill:#777"/><path d="M83.24,233.37c.21.76.43,1.51.65,2.26l.3,1a1.37,1.37,0,0,0,0,.29c0,.1,0,.2,0,.3-2.18,1.16-4.36,2.31-6.53,3.49-2,1.07-4,2.17-5.94,3.23-.54.29-1.06.82-1.78.45l8.47-7Z" style="fill:#676767"/><path d="M86.47,234.65l3.29-3.77L93,227.11c.88-1,1.74-2.05,2.63-3.06,1.18-1.32,2.4-2.62,3.57-4s2.18-2.52,3.27-3.78c.24-.29.49-.57.74-.85,1.3-1.5,2.61-3,3.92-4.5a13.64,13.64,0,0,1,1.13-1.15c.13-.12.39-.1.59-.14q-3.24,5.35-6.5,10.7c-.11.21-.23.42-.34.64a2.48,2.48,0,0,0-.26.19c-1.66,1.53-3.31,3.07-5,4.58s-3.45,3.07-5.18,4.61c-.36.32-.7.67-1.06,1-1.15,1-2.31,2.09-3.49,3.11C86.93,234.62,86.67,234.61,86.47,234.65Z" style="fill:#1c1c1c"/><path d="M105.3,93.52a17.53,17.53,0,0,1,2,3.31c-.17.27-.33.56-.52.82L87.49,123.72l-.35.3-9.86-4.4c-2.85-1.28-5.69-2.57-8.54-3.82-2-.86-4-1.66-5.94-2.49,0-.22,0-.43,0-.64a13.92,13.92,0,0,0,1.82-.62c4.08-2,8.15-4,12.23-5.93,3-1.46,6-2.9,9-4.35,2.57-1.24,5.14-2.48,7.73-3.7,3.26-1.55,6.54-3.06,9.81-4.6A1.91,1.91,0,0,1,105,93.2Z" style="fill:#1a1a1a"/><path d="M105.3,93.52,105,93.2a4,4,0,0,1,2.21-.33H130.6c.55,1.11,1.11,2.22,1.65,3.33,1,2.14,2,4.29,3.07,6.42,2.47,5,5,9.94,7.44,14.92.32.62.55,1.28.83,1.93a1.3,1.3,0,0,1-1.19-.35l-4-2.78-6.1-4.27-9.55-6.67-4.52-3.14-9.41-6.58c-1-.71-2-1.41-3.08-2.1C105.65,93.5,105.45,93.54,105.3,93.52Z" style="fill:#353535"/><path d="M112.43,60.74l.63-1c.18.37.45.62.89.49a7.09,7.09,0,0,0,.9-.37l11.22-5.45c.63-.3,1.29-.54,1.94-.81h0c.08.37.19.73.24,1.1q.56,3.47,1.09,7c.21,1.42.41,2.85.62,4.27a1.51,1.51,0,0,1-1.25,0l-5.23-1.63c-3-.95-5.93-1.92-8.91-2.84a8.87,8.87,0,0,0-2-.34c-.81-.06-1.62,0-2.42,0a12,12,0,0,1-1.57-.28l.65-.06Z" style="fill:#323232"/><path d="M130,65.94c-.21-1.42-.41-2.85-.62-4.27q-.54-3.49-1.09-7c-.05-.37-.16-.73-.24-1.1a9.74,9.74,0,0,1,1,.84c1,1.18,2,2.37,3.05,3.56s1.85,2.1,2.74,3.18c.67.79.69,1,.13,1.86-1.41,2.16-2.86,4.31-4.3,6.46a3.12,3.12,0,0,1-.32-1.7A3.54,3.54,0,0,0,130,65.94Z" style="fill:#1b1b1b"/><path d="M109.18,60.72l-.65.06-5.6-.05a4,4,0,0,1-1.88-.29h6.41A3.39,3.39,0,0,1,109.18,60.72Z" style="fill:#5a5a5a"/><path d="M53.39,138.31l-.31,0-.63-.62c2-.26,4-.51,5.95-.79,3.48-.48,6.95-1,10.43-1.47L78.62,134a5.75,5.75,0,0,0,.77-.25l8.36-1.06a1.1,1.1,0,0,0,1-1.23,1.53,1.53,0,0,0,1.88.83c.89-.21,1.81-.29,2.71-.43a2,2,0,0,1,1.55.26c-.09.53.34.76.63,1.06,2.9,3,5.88,6,8.77,9,5.74,6.07,11.65,12,17.5,17.93a10.07,10.07,0,0,1,.78.82,7.61,7.61,0,0,1,.55,1h-.3l-.67-.3-8.28-2.83L92,151.4l-16.72-5.68-20.08-6.84c-.36-.12-.73-.18-1.1-.27Z" style="fill:#6a6a6a"/><path d="M88.77,131.49a1.1,1.1,0,0,1-1,1.23l-8.36,1.06a2.21,2.21,0,0,1-1.91-1c-1.61-2.16-3.28-4.28-4.9-6.43q-4-5.28-7.94-10.6l-1.84-2.45c2,.83,4,1.63,5.94,2.49,2.85,1.25,5.69,2.54,8.54,3.82l9.86,4.4c.12.46.26.92.36,1.38C87.93,127.43,88.34,129.46,88.77,131.49Z" style="fill:#232323"/><path d="M88.77,131.49c-.43-2-.84-4.06-1.27-6.09-.1-.46-.24-.92-.36-1.38l.35-.3a9.37,9.37,0,0,0,1,.26c.41.06.82,0,1.23.06a4.5,4.5,0,0,0,2.15.62c1.4.13,2.79.3,4.18.47,2.25.27,4.5.56,6.74.84l6.27.78c2.14.27,4.28.56,6.42.82s4.39.49,6.59.76c3.15.39,6.31.81,9.46,1.22a2.11,2.11,0,0,0,0,.26l-3.17,1.62c-4.47,2.3-8.94,4.59-13.4,6.91-1.53.8-3,1.67-4.53,2.51a7.3,7.3,0,0,1-2.48-1.11c-1.27-.7-2.52-1.43-3.77-2.16l-9.3-5.43a2,2,0,0,0-1.55-.26c-.9.14-1.82.22-2.71.43A1.53,1.53,0,0,1,88.77,131.49Z" style="fill:#757575"/><path d="M110.82,206.16a15.09,15.09,0,0,1,1-4.08q2.44-8.4,5-16.78c1-3.46,2.08-6.92,3.11-10.39q1.81-6.14,3.59-12.28a2.19,2.19,0,0,1,1.21-.78l3.54-1.14,10.18-3.24a18.37,18.37,0,0,1-.77,1.76c-1.49,2.66-3,5.31-4.52,8a4.31,4.31,0,0,0-.22.6c-.86,1.43-1.76,2.84-2.58,4.29-2.58,4.54-5.12,9.11-7.7,13.66-2.92,5.15-5.87,10.29-8.8,15.44-.69,1.22-1.34,2.46-2,3.67C111.48,205.32,111.13,205.73,110.82,206.16Z" style="fill:#1b1b1b"/><path d="M138.38,157.47l-10.18,3.24-3.54,1.14a2.19,2.19,0,0,0-1.21.78l-1.3.64-.3-.36,1.29-.94a7.61,7.61,0,0,0-.55-1,10.07,10.07,0,0,0-.78-.82c-5.85-6-11.76-11.86-17.5-17.93-2.89-3.05-5.87-6-8.77-9-.29-.3-.72-.53-.63-1.06l9.3,5.43c1.25.73,2.5,1.46,3.77,2.16a7.3,7.3,0,0,0,2.48,1.11,19,19,0,0,0,1.77,1.37c2.45,1.47,4.93,2.89,7.39,4.32l2.66,1.53a1.86,1.86,0,0,0,1.83.28,2.19,2.19,0,0,0,1.22,1.42l6.14,3.55,6.14,3.57C137.88,157.06,138.12,157.28,138.38,157.47Z" style="fill:#3e3e3e"/><path d="M124.11,148.35a1.86,1.86,0,0,1-1.83-.28l-2.66-1.53c-2.46-1.43-4.94-2.85-7.39-4.32a19,19,0,0,1-1.77-1.37c1.51-.84,3-1.71,4.53-2.51,4.46-2.32,8.93-4.61,13.4-6.91l3.17-1.62c.18.53-.13.94-.31,1.38Z" style="fill:#333"/><path d="M131.54,129.55c-3.15-.41-6.31-.83-9.46-1.22-2.2-.27-4.4-.49-6.59-.76s-4.28-.55-6.42-.82L102.8,126c-2.24-.28-4.49-.57-6.74-.84-1.39-.17-2.78-.34-4.18-.47a4.5,4.5,0,0,1-2.15-.62c2.48-.1,5-.23,7.45-.31l14.9-.45c3.24-.09,6.48-.2,9.72-.31,1.3,0,2.59-.12,3.89-.19.37,0,.77,0,1-.38l5.22,7.13Z" style="fill:#4c4c4c"/><path d="M128,53.61c-.65.27-1.31.51-1.94.81l-11.22,5.45a7.09,7.09,0,0,1-.9.37c-.44.13-.71-.12-.89-.49.27-1.81.53-3.63.83-5.44q2.33-14,4.67-27.92c0-.22,0-.43.06-.65.6.36.67,1,1,1.59.39,1.34.74,2.69,1.18,4,1.85,5.62,3.75,11.23,5.6,16.86C127,50,127.46,51.81,128,53.61Z" style="fill:#1d1d1d"/><path d="M143.59,119.47c-.28-.65-.51-1.31-.83-1.93-2.47-5-5-9.94-7.44-14.92-1-2.13-2-4.28-3.07-6.42-.54-1.11-1.1-2.22-1.65-3.33l8.34,1c1,.12,2,.22,3,.36a.93.93,0,0,1,.9,1c.05.59,0,1.19.06,1.78s.19,1.15.29,1.73c.13,3.46.18,6.92.42,10.36.2,2.81.28,5.61.28,8.42A4.13,4.13,0,0,1,143.59,119.47Z" style="fill:#1e1e1e"/><path d="M84.19,236.63l-.3-1Z" style="fill:#3e3e3e"/><path d="M122.17,161.66l.67.3Z" style="fill:#3e3e3e"/><path d="M53.39,138.31l.66.3Z" style="fill:#3b3b3b"/></g></g></svg>