<svg xmlns="http://www.w3.org/2000/svg" viewBox="0 0 1447.7 2051.07"><title>Layer 2</title><g id="Layer_2" data-name="Layer 2"><g id="Layer_1-2" data-name="Layer 1"><g id="Layer_2-2" data-name="Layer 2"><g id="Layer_1-2-2" data-name="Layer 1-2"><g id="Layer_4_Image" data-name="Layer 4 Image"><path d="M1447.51,741.5c-1.42,20.34-1.92,40.81-4.41,61-26.4,214.39-126.4,386.19-301.93,512C1010,1408.5,862,1452.37,700.83,1446.79,514.42,1440.38,353.71,1371,219,1242c-1.24-1.2-1.21-5.94,0-7.21Q471.07,982.27,723.66,730.26a22.66,22.66,0,0,1,14.48-5.94q354.69-.44,709.37-.26Z" style="fill:#fff"/><path d="M741.45,0c19.88,1.51,39.8,2.39,59.61,4.53q174,18.86,320.5,114.88a24.14,24.14,0,0,1,1.91,1.6l-61.74,61.61c-13.44,13.41-26.79,26.91-40.39,40.15a6.33,6.33,0,0,1-5.85.51Q868,138.43,698,145.23C444.4,155.45,223.3,335.06,162.5,581.35c-37.64,152.6-16.71,297.57,60.8,434.4.74,1.3.79,4.17-.11,5Q172.7,1071.6,121.9,1122.17c-.33.33-.74.6-1.51,1.22-3.19-4.94-6.39-9.72-9.42-14.6C27.34,973.67-9.56,826.81,2.38,668.29,27.27,338.76,272.55,68.79,598.93,11.46c33-5.79,66.74-7.26,100.14-10.73L705.89,0Z" style="fill:#fff"/><path d="M1108.3,436.82a130.13,130.13,0,1,1,38.21,92.38A130.13,130.13,0,0,1,1108.3,436.82Z" style="fill:#fff"/></g><g id="Layer_2_copy_Image" data-name="Layer 2 copy Image"><path d="M208,1648.1a20.86,20.86,0,0,0,2.37.37c50.36,2.52,93.79,21.41,130.47,55.93.84.84,1.75,1.68,2.43,2.31L315.05,1735c-1.17-1.08-2.64-2.42-4.09-3.78a161.73,161.73,0,0,0-59.47-35,165.28,165.28,0,0,0-29.38-6.66,168.59,168.59,0,0,0-31.52-1,150.47,150.47,0,0,0-33.57,5.81,160.52,160.52,0,0,0-27.14,10.46,152.07,152.07,0,0,0-33.14,21.86c-3.88,3.4-7.7,6.88-11.33,10.55a154.13,154.13,0,0,0-19.31,24.13,161,161,0,0,0-13.8,26.09,156.86,156.86,0,0,0-12,51.54,180.54,180.54,0,0,0-.25,18.9,155.19,155.19,0,0,0,5,32.27,163.27,163.27,0,0,0,11,29.73,161.37,161.37,0,0,0,132.41,90.46,179.82,179.82,0,0,0,23.33.17,154.88,154.88,0,0,0,37.07-6.78,157.21,157.21,0,0,0,24-9.59,162.1,162.1,0,0,0,63-55.66A159.19,159.19,0,0,0,356,1895.31c.41-1.39.84-2.79,1.3-4.55-5.34-.06-10.34,0-15.34,0H160.88l41-41.09H402.61v2.83c-1.11,49.06-17.5,92.33-49.67,129.4-28.72,33.1-64.78,54.21-107.44,64.1a204.18,204.18,0,0,1-34,4.67,180.51,180.51,0,0,1-28.76-.61c-44-4.36-82.71-21-115.67-50.49-32-28.66-52.65-64.21-62.26-106.1a185.77,185.77,0,0,1-4.71-36.3c-1.53-53.37,15-100.44,50.12-140.64,28.36-32.48,63.94-53.33,105.91-63.26a204.07,204.07,0,0,1,31.21-4.68c1.54-.12,3.09-.07,4.63-.16a23.62,23.62,0,0,0,2.36-.37Z" style="fill:#fff"/><path d="M1447.7,2051h-40.13V1890.9h-121v159.74c-1.59.46-37.33.59-40.07.18V1810.23h40v39c1.68.45,117.13.62,121,.19V1730a13.3,13.3,0,0,1,1.68-.22h37.47a8.44,8.44,0,0,1,1,.09Z" style="fill:#fff"/><path d="M1044.63,1890.65H884.37l-41-41h155A119.71,119.71,0,0,0,972.31,1807c-18.58-19.56-41.22-31.81-67.81-36.32a121.09,121.09,0,0,0-97.22,212.94c24,19.59,51.63,28.81,82.51,27.4s57.28-13.35,79.39-34.56L997,2004.27c-39.71,41.74-115.12,64.52-184.91,29.53a160.63,160.63,0,0,1,111.49-299.28C1005,1755.32,1046.1,1828.69,1044.63,1890.65Z" style="fill:#fff"/><path d="M564.3,1969.65l138.41-239.73h45.86l.12.19c0,.06.06.14,0,.19-.1.25-.21.49-.33.73L563.71,2050.9h-40V1730.27a1,1,0,0,1,.15-.2.46.46,0,0,1,.17-.09,4.2,4.2,0,0,1,.79-.13h37.87a8.66,8.66,0,0,1,1,.16v239.55Z" style="fill:#fff"/><path d="M1125.45,2050.88h-40.18V1769c-2.74-.15-5.33,0-7.92-.07s-5.37,0-8.06,0h-31.62l-22.76-39H1286.4v39h-161Z" style="fill:#fff"/><path d="M483.09,2050.88H443.17V1810.23H482.9l.1.1c0,.05.12.1.12.15q0,119.65.08,239.29C483.19,2050.09,483.14,2050.42,483.09,2050.88Z" style="fill:#fff"/><path d="M463.16,1729.8a19.94,19.94,0,1,1-14.26,5.83A19.94,19.94,0,0,1,463.16,1729.8Z" style="fill:#fff"/></g></g></g></g></g></svg>