<svg xmlns="http://www.w3.org/2000/svg" viewBox="0 0 223.8 117.01"><title>ways-to-donate</title><g id="Layer_2" data-name="Layer 2"><g id="Layer_1-2" data-name="Layer 1"><g id="Layer_2-2" data-name="Layer 2"><g id="Layer_1-2-2" data-name="Layer 1-2"><path d="M14.6,42.7l2.1-7.5L27.4,0h1.9L40,35.2l2,7.5,2.1-7.5L53.5,0h1.8L43.1,45.5H41.2L29.9,7.6,28.3,2.8,26.8,7.6,15.4,45.5H13.5L1.2,0H3.1l9.4,35.2Z" style="fill:#c99d66"/><path d="M83.5,45.5a21.43,21.43,0,0,1-.6-6.2,13.3,13.3,0,0,1-5.5,5,17.5,17.5,0,0,1-7.8,1.8,11.34,11.34,0,0,1-7.5-2.5,8.87,8.87,0,0,1,1.3-14.1c2.8-1.9,6.5-2.8,11.2-2.8h8.3V21.8a8.27,8.27,0,0,0-2.7-6.6c-1.8-1.6-4.3-2.3-7.6-2.3a11.79,11.79,0,0,0-7.7,2.4,7.16,7.16,0,0,0-3.1,5.9L60,20.9a8.71,8.71,0,0,1,3.6-7A13.61,13.61,0,0,1,72.5,11c3.7,0,6.5.9,8.7,2.7a9.8,9.8,0,0,1,3.3,7.7V37.6c0,3.7.3,6.2.9,7.6v.3Zm-14-1.1a15.68,15.68,0,0,0,8.2-2.1,13.22,13.22,0,0,0,5.2-6v-8H75c-4.8,0-8.5,1-11.1,2.9A7.12,7.12,0,0,0,60.8,37a6.88,6.88,0,0,0,2.5,5.3A8.68,8.68,0,0,0,69.5,44.4Z" style="fill:#c99d66"/><path d="M105.3,42.9l.2-.6,11.7-30.6h1.9L104,51.4l-.8,1.9c-1.6,3.9-4.3,5.9-8.1,5.9a7.15,7.15,0,0,1-2.5-.3V57.3a8.52,8.52,0,0,0,2.3.3,6.37,6.37,0,0,0,4.4-1.5,12.19,12.19,0,0,0,3-5l2.1-5.6L90.9,11.7h1.8Z" style="fill:#c99d66"/><path d="M146.3,37.2q0-6.15-10.5-8.4c-4.2-.9-7.1-2-8.8-3.5a7.25,7.25,0,0,1-2.5-5.8,7.4,7.4,0,0,1,3.1-6.1,13.38,13.38,0,0,1,8.2-2.4,13.66,13.66,0,0,1,8.8,2.6,8.43,8.43,0,0,1,3.3,7h-1.7a7.15,7.15,0,0,0-2.9-5.7,11.91,11.91,0,0,0-7.5-2.3,12.32,12.32,0,0,0-7,1.9,5.89,5.89,0,0,0-2.6,4.8,5.8,5.8,0,0,0,1,3.6,8.21,8.21,0,0,0,3.2,2.3,28,28,0,0,0,6.4,2,24.12,24.12,0,0,1,6.5,2.4,9.48,9.48,0,0,1,3.5,3.1,8.47,8.47,0,0,1,1.1,4.4,7.6,7.6,0,0,1-3.3,6.4,13.72,13.72,0,0,1-8.6,2.4,14.36,14.36,0,0,1-9.2-2.6,8,8,0,0,1-3.5-6.6H125a7.11,7.11,0,0,0,3.1,5.5,14.21,14.21,0,0,0,7.8,2,12.27,12.27,0,0,0,7.4-2.1A5.32,5.32,0,0,0,146.3,37.2Z" style="fill:#c99d66"/><path d="M176.4,2.6v9.1h7.7v1.7h-7.7v24a10.2,10.2,0,0,0,1.2,5.4,4.25,4.25,0,0,0,3.9,1.7,20.41,20.41,0,0,0,3.4-.3l.3,1.6a13.42,13.42,0,0,1-3.5.4c-2.5,0-4.2-.7-5.3-2s-1.6-3.6-1.6-6.5V13.4h-6.3V11.7h6.3V2.6Z" style="fill:#c99d66"/><path d="M189.7,27.9a20.06,20.06,0,0,1,1.9-8.7,14,14,0,0,1,5.3-6,15,15,0,0,1,7.7-2.2,14,14,0,0,1,12.9,8,18.73,18.73,0,0,1,1.9,8.7v1.5a20,20,0,0,1-1.8,8.7,14.42,14.42,0,0,1-5.2,6,14.38,14.38,0,0,1-20.7-6,19.51,19.51,0,0,1-1.9-8.5V27.9Zm1.7,1.4a17,17,0,0,0,1.7,7.7,13.62,13.62,0,0,0,4.6,5.5,12.57,12.57,0,0,0,6.8,2,11.8,11.8,0,0,0,9.4-4.3A16.74,16.74,0,0,0,217.5,29V28a18.41,18.41,0,0,0-1.7-7.7,13.62,13.62,0,0,0-4.6-5.5,12.57,12.57,0,0,0-6.8-2,11.34,11.34,0,0,0-9.4,4.4,16.48,16.48,0,0,0-3.6,11.1Z" style="fill:#c99d66"/><path d="M0,116.3v-42H13.5a19.56,19.56,0,0,1,10,2.5,18.12,18.12,0,0,1,6.9,7.1,20.66,20.66,0,0,1,2.5,10.3v1.9a21.68,21.68,0,0,1-2.4,10.3,17.87,17.87,0,0,1-6.8,7.1,20,20,0,0,1-9.9,2.6H0ZM10.1,82.2v26.4h3.5a8,8,0,0,0,6.7-3.1c1.5-2.1,2.3-5.1,2.3-9.2V94.5c0-4.1-.8-7.1-2.3-9.2a8.16,8.16,0,0,0-6.8-3.1Z" style="fill:#c99d66"/><path d="M73.7,96.2a24.3,24.3,0,0,1-2.3,10.9,17,17,0,0,1-6.5,7.3,18.85,18.85,0,0,1-9.5,2.6,17.8,17.8,0,0,1-9.5-2.5,17.52,17.52,0,0,1-6.5-7A24.08,24.08,0,0,1,37,97V94.6a24.3,24.3,0,0,1,2.3-10.9,16.81,16.81,0,0,1,6.4-7.3,18.94,18.94,0,0,1,9.6-2.6,17.8,17.8,0,0,1,9.5,2.5,16.78,16.78,0,0,1,6.5,7.2,25.06,25.06,0,0,1,2.4,10.8ZM63.4,94.4c0-4.2-.7-7.3-2.1-9.5a6.73,6.73,0,0,0-6-3.2c-5.1,0-7.7,3.8-8,11.4v3.1c0,4.1.7,7.3,2,9.5a6.87,6.87,0,0,0,6.1,3.3,6.55,6.55,0,0,0,5.9-3.3c1.4-2.2,2.1-5.3,2.1-9.4Z" style="fill:#c99d66"/><path d="M113.9,116.3H103.8L89,90.2v26.1H78.9v-42H89l14.8,26.1V74.3h10.1Z" style="fill:#c99d66"/><path d="M144.7,108.5H130.8l-2.4,7.8H117.6l15.4-42h9.5l15.5,42H147.1Zm-11.5-7.8h9l-4.5-14.5Z" style="fill:#c99d66"/><path d="M190.5,82.2H177.9v34.1H167.8V82.2H155.4V74.4h35.1Z" style="fill:#c99d66"/><path d="M220.8,98.5H204.9v10h18.8v7.8H194.8v-42h29v7.8H204.9V91h15.9Z" style="fill:#c99d66"/></g></g></g></g></svg>